<svg width="144" height="101" viewBox="0 0 144 101" fill="none" xmlns="http://www.w3.org/2000/svg">
<path d="M19.704 65C27.432 65 33.048 62.312 33.048 55.976C33.048 51.896 30.888 49.832 27.672 48.92C30.744 47.768 32.712 45.272 32.712 41.576C32.712 36.056 27.864 32.696 19.8 32.696H7.32V65H19.704ZM14.328 38.456H20.184C23.784 38.456 25.704 39.752 25.704 42.152C25.704 44.792 23.976 46.136 20.136 46.136H14.328V38.456ZM14.328 51.896H20.136C24.072 51.896 26.04 52.76 26.04 55.496C26.04 58.472 23.496 59.24 20.088 59.24H14.328V51.896ZM49.1701 59.048C45.6661 59.048 43.9381 55.928 43.9381 52.28V41.24H37.1221V53.048C37.1221 60.008 41.2501 65.624 49.1701 65.624C57.1381 65.624 61.2661 60.008 61.2661 53.048V41.24H54.4501V52.232C54.4501 55.928 52.6741 59.048 49.1701 59.048ZM77.1801 76.616C85.0041 76.616 90.3321 71.192 90.3321 62.888V41.24H83.4201V52.904C83.4201 56.312 81.1161 58.856 78.0441 58.856C74.6841 58.856 72.8121 56.504 72.8121 53.048V41.24H66.0921V53.288C66.0921 60.344 69.4521 65.288 77.1801 65.288C80.1081 65.288 82.2201 64.232 83.5161 62.312V62.984C83.5161 67.4 81.1641 70.376 77.0841 70.376C74.0121 70.376 71.9001 68.792 70.8441 66.728L65.2281 69.8C67.3881 74.216 71.5161 76.616 77.1801 76.616ZM107.499 65.624C112.539 65.624 116.475 63.176 118.539 58.904L113.307 56.264C112.203 58.472 110.043 59.72 107.451 59.72C104.043 59.72 101.595 57.608 101.115 54.44H118.779V52.424C118.779 45.944 114.411 40.376 106.875 40.376C99.5314 40.376 94.5394 46.04 94.5394 52.904C94.5394 60.488 100.107 65.624 107.499 65.624ZM101.403 50.648C101.883 48.248 103.851 46.328 106.827 46.328C109.707 46.328 111.723 48.2 112.011 50.648H101.403ZM129.587 65V51.608C129.587 48.776 131.219 47.048 133.907 47.048C135.155 47.048 136.547 47.384 137.699 48.056V41.432C136.499 40.904 134.819 40.616 133.283 40.616C126.227 40.616 122.771 45.272 122.771 51.368V65H129.587Z" fill="#DAFDE0"/>
<path d="M16.704 62C24.432 62 30.048 59.312 30.048 52.976C30.048 48.896 27.888 46.832 24.672 45.92C27.744 44.768 29.712 42.272 29.712 38.576C29.712 33.056 24.864 29.696 16.8 29.696H4.32V62H16.704ZM11.328 35.456H17.184C20.784 35.456 22.704 36.752 22.704 39.152C22.704 41.792 20.976 43.136 17.136 43.136H11.328V35.456ZM11.328 48.896H17.136C21.072 48.896 23.04 49.76 23.04 52.496C23.04 55.472 20.496 56.24 17.088 56.24H11.328V48.896ZM46.1701 56.048C42.6661 56.048 40.9381 52.928 40.9381 49.28V38.24H34.1221V50.048C34.1221 57.008 38.2501 62.624 46.1701 62.624C54.1381 62.624 58.2661 57.008 58.2661 50.048V38.24H51.4501V49.232C51.4501 52.928 49.6741 56.048 46.1701 56.048ZM74.1801 73.616C82.0041 73.616 87.3321 68.192 87.3321 59.888V38.24H80.4201V49.904C80.4201 53.312 78.1161 55.856 75.0441 55.856C71.6841 55.856 69.8121 53.504 69.8121 50.048V38.24H63.0921V50.288C63.0921 57.344 66.4521 62.288 74.1801 62.288C77.1081 62.288 79.2201 61.232 80.5161 59.312V59.984C80.5161 64.4 78.1641 67.376 74.0841 67.376C71.0121 67.376 68.9001 65.792 67.8441 63.728L62.2281 66.8C64.3881 71.216 68.5161 73.616 74.1801 73.616ZM104.499 62.624C109.539 62.624 113.475 60.176 115.539 55.904L110.307 53.264C109.203 55.472 107.043 56.72 104.451 56.72C101.043 56.72 98.5954 54.608 98.1154 51.44H115.779V49.424C115.779 42.944 111.411 37.376 103.875 37.376C96.5314 37.376 91.5394 43.04 91.5394 49.904C91.5394 57.488 97.1074 62.624 104.499 62.624ZM98.4034 47.648C98.8834 45.248 100.851 43.328 103.827 43.328C106.707 43.328 108.723 45.2 109.011 47.648H98.4034ZM126.587 62V48.608C126.587 45.776 128.219 44.048 130.907 44.048C132.155 44.048 133.547 44.384 134.699 45.056V38.432C133.499 37.904 131.819 37.616 130.283 37.616C123.227 37.616 119.771 42.272 119.771 48.368V62H126.587Z" fill="#44E5A2"/>
</svg>
