<svg width="184" height="101" viewBox="0 0 184 101" fill="none" xmlns="http://www.w3.org/2000/svg">
<path d="M25.272 80C35.576 80 43.064 76.416 43.064 67.968C43.064 62.528 40.184 59.776 35.896 58.56C39.992 57.024 42.616 53.696 42.616 48.768C42.616 41.408 36.152 36.928 25.4 36.928H8.76V80H25.272ZM18.104 44.608H25.912C30.712 44.608 33.272 46.336 33.272 49.536C33.272 53.056 30.968 54.848 25.848 54.848H18.104V44.608ZM18.104 62.528H25.848C31.096 62.528 33.72 63.68 33.72 67.328C33.72 71.296 30.328 72.32 25.784 72.32H18.104V62.528ZM64.8935 72.064C60.2215 72.064 57.9175 67.904 57.9175 63.04V48.32H48.8295V64.064C48.8295 73.344 54.3335 80.832 64.8935 80.832C75.5175 80.832 81.0215 73.344 81.0215 64.064V48.32H71.9335V62.976C71.9335 67.904 69.5655 72.064 64.8935 72.064ZM102.574 95.488C113.006 95.488 120.11 88.256 120.11 77.184V48.32H110.894V63.872C110.894 68.416 107.822 71.808 103.726 71.808C99.2455 71.808 96.7495 68.672 96.7495 64.064V48.32H87.7895V64.384C87.7895 73.792 92.2695 80.384 102.574 80.384C106.478 80.384 109.294 78.976 111.022 76.416V77.312C111.022 83.2 107.886 87.168 102.446 87.168C98.3495 87.168 95.5335 85.056 94.1255 82.304L86.6375 86.4C89.5175 92.288 95.0215 95.488 102.574 95.488ZM143.333 80.832C150.053 80.832 155.301 77.568 158.053 71.872L151.077 68.352C149.605 71.296 146.725 72.96 143.269 72.96C138.725 72.96 135.461 70.144 134.821 65.92H158.373V63.232C158.373 54.592 152.549 47.168 142.501 47.168C132.709 47.168 126.053 54.72 126.053 63.872C126.053 73.984 133.477 80.832 143.333 80.832ZM135.205 60.864C135.845 57.664 138.469 55.104 142.437 55.104C146.277 55.104 148.965 57.6 149.349 60.864H135.205ZM173.116 80V62.144C173.116 58.368 175.292 56.064 178.876 56.064C180.54 56.064 182.396 56.512 183.932 57.408V48.576C182.332 47.872 180.092 47.488 178.044 47.488C168.635 47.488 164.028 53.696 164.028 61.824V80H173.116Z" fill="#DAFDE0"/>
<path d="M22.272 77C32.576 77 40.064 73.416 40.064 64.968C40.064 59.528 37.184 56.776 32.896 55.56C36.992 54.024 39.616 50.696 39.616 45.768C39.616 38.408 33.152 33.928 22.4 33.928H5.76V77H22.272ZM15.104 41.608H22.912C27.712 41.608 30.272 43.336 30.272 46.536C30.272 50.056 27.968 51.848 22.848 51.848H15.104V41.608ZM15.104 59.528H22.848C28.096 59.528 30.72 60.68 30.72 64.328C30.72 68.296 27.328 69.32 22.784 69.32H15.104V59.528ZM61.8935 69.064C57.2215 69.064 54.9175 64.904 54.9175 60.04V45.32H45.8295V61.064C45.8295 70.344 51.3335 77.832 61.8935 77.832C72.5175 77.832 78.0215 70.344 78.0215 61.064V45.32H68.9335V59.976C68.9335 64.904 66.5655 69.064 61.8935 69.064ZM99.5735 92.488C110.006 92.488 117.11 85.256 117.11 74.184V45.32H107.894V60.872C107.894 65.416 104.822 68.808 100.726 68.808C96.2455 68.808 93.7495 65.672 93.7495 61.064V45.32H84.7895V61.384C84.7895 70.792 89.2695 77.384 99.5735 77.384C103.478 77.384 106.294 75.976 108.022 73.416V74.312C108.022 80.2 104.886 84.168 99.4455 84.168C95.3495 84.168 92.5335 82.056 91.1255 79.304L83.6375 83.4C86.5175 89.288 92.0215 92.488 99.5735 92.488ZM140.333 77.832C147.053 77.832 152.301 74.568 155.053 68.872L148.077 65.352C146.605 68.296 143.725 69.96 140.269 69.96C135.725 69.96 132.461 67.144 131.821 62.92H155.373V60.232C155.373 51.592 149.549 44.168 139.501 44.168C129.709 44.168 123.053 51.72 123.053 60.872C123.053 70.984 130.477 77.832 140.333 77.832ZM132.205 57.864C132.845 54.664 135.469 52.104 139.437 52.104C143.277 52.104 145.965 54.6 146.349 57.864H132.205ZM170.116 77V59.144C170.116 55.368 172.292 53.064 175.876 53.064C177.54 53.064 179.396 53.512 180.932 54.408V45.576C179.332 44.872 177.092 44.488 175.044 44.488C165.635 44.488 161.028 50.696 161.028 58.824V77H170.116Z" fill="#44E5A2"/>
</svg>
