<svg width="10" height="101" viewBox="0 0 10 101" fill="none" xmlns="http://www.w3.org/2000/svg">
<path d="M25.932 66.672C31.548 66.672 36.924 63.696 39.324 58.656L33.612 55.44C32.124 58.224 29.532 60 25.644 60C20.22 60 16.38 55.728 16.38 49.872C16.38 44.016 20.268 39.744 25.644 39.744C29.532 39.744 32.028 41.52 33.612 44.304L39.324 41.088C36.924 36.048 31.548 33.072 25.932 33.072C16.524 33.072 9.18 40.512 9.18 49.872C9.18 59.232 16.524 66.672 25.932 66.672ZM53.6724 66.624C60.5364 66.624 66.0084 62.4 66.0084 56.592C66.0084 49.248 59.6724 47.52 54.8724 46.704C51.3684 46.08 48.6804 45.408 48.6804 42.816C48.6804 40.848 50.5044 39.6 53.1444 39.6C56.4084 39.6 58.5204 41.04 59.5764 43.104L65.4324 40.176C63.3684 35.568 58.7604 33.12 53.4324 33.12C46.7604 33.12 41.6724 37.44 41.6724 43.104C41.6724 50.4 48.2484 52.128 53.0964 52.944C56.4564 53.52 59.0004 53.952 59.0004 56.64C59.0004 58.944 56.6964 60.192 53.6724 60.192C50.3124 60.192 48.0564 58.992 47.0004 56.64L41.1444 59.568C43.2084 64.176 47.8644 66.624 53.6724 66.624ZM78.4195 66L78.4675 55.68H81.2035C84.8515 55.68 86.2435 57.264 87.7315 60.24L90.6115 66H98.1955L95.0755 59.616C93.3955 56.256 92.1955 54.048 90.1315 52.896C94.2595 51.792 96.8515 48.384 96.8515 43.968C96.8515 37.104 91.2355 33.696 83.9395 33.696H71.5075V66H78.4195ZM84.0355 40.176C87.2035 40.176 89.6515 41.52 89.6515 44.688C89.6515 47.712 87.2515 49.44 83.9395 49.44H78.4675L78.5155 40.176H84.0355Z" fill="#02B7FF"/>
</svg>
