<svg width="386" height="112" viewBox="0 0 386 112" fill="none" xmlns="http://www.w3.org/2000/svg">
<path fill-rule="evenodd" clip-rule="evenodd" d="M368.142 0.335999C366.459 1.225 366 2.419 366 5.907V8.333H368.917H371.833V7.167V6H372.583H373.333V8.5V11H370.5H367.667V15.333V19.667H370.583H373.5V18.45V17.233L374.744 17.054C378.505 16.512 378.998 15.52 378.998 8.5C378.998 2.392 378.715 1.338 376.82 0.376999C375.767 -0.157001 369.134 -0.188001 368.142 0.335999ZM302.167 14.167V20.833H306.333H310.5V49V77.167H317.25H324V49.003V20.839L328.125 20.795L332.25 20.75L332.294 14.125L332.337 7.5H317.252H302.167V14.167ZM333.167 49.333V77.167H339.5H345.833V57.035C345.833 35.031 345.794 35.959 346.798 34.1C347.753 32.33 349.27 31.667 352.364 31.667H354.333V26.583V21.5H351.553C348.066 21.5 347.042 21.922 346.094 23.75C345.841 24.24 345.835 24.222 345.834 22.875L345.833 21.5H339.5H333.167V49.333ZM361.044 21.757C358.613 22.412 357.185 23.799 356.59 26.086C356.206 27.56 356.201 71.661 356.585 72.953C357.136 74.808 358.54 76.193 360.479 76.793C361.904 77.234 379.596 77.234 381.021 76.793C382.311 76.394 383.481 75.57 384.123 74.608C385.159 73.059 385.167 72.978 385.167 63.636V55.167H379.083H373V60.217C373 66.177 373.211 65.667 370.75 65.667C368.273 65.667 368.5 66.327 368.5 59.133V53H376.833H385.167V40.035C385.167 29.138 385.127 26.919 384.92 26.125C384.294 23.718 382.943 22.415 380.384 21.749C379.021 21.393 362.367 21.401 361.044 21.757ZM372.827 33.322C372.934 33.522 373 35.391 373 38.239V42.833H370.75H368.5V38.239C368.5 32.566 368.314 33 370.75 33C372.463 33 372.672 33.033 372.827 33.322Z" fill="#EC9404"/>
<path fill-rule="evenodd" clip-rule="evenodd" d="M47.747 89.809C47.709 89.847 47.506 89.906 47.297 89.939C45.163 90.283 44.777 90.438 44.901 90.898C44.953 91.092 44.996 91.31 44.998 91.382C44.999 91.455 45.094 91.502 45.208 91.488C46.693 91.295 46.833 91.689 46.833 96.051V99.121L45.354 99.077C42.734 99.001 40.415 99.809 39.186 101.227C38.959 101.489 38.689 101.789 38.586 101.893C37.631 102.866 37.091 105.983 37.588 107.667C37.726 108.138 37.915 108.547 38.375 109.375C39.542 111.475 41.628 111.932 45.051 110.835C46.963 110.223 46.886 110.225 47.035 110.781C47.201 111.404 47.446 111.5 48.582 111.387C49.845 111.262 49.996 111.143 49.876 110.367C49.823 110.027 49.755 105.325 49.724 99.917C49.693 94.508 49.632 89.989 49.589 89.875C49.516 89.682 47.93 89.626 47.747 89.809ZM97.75 89.841C97.383 89.92 96.896 90.033 96.667 90.091C96.438 90.149 96.136 90.212 95.997 90.231C95.858 90.25 95.652 90.323 95.539 90.393C95.426 90.463 95.253 90.47 95.155 90.409C95.038 90.337 94.995 90.486 95.03 90.837C95.079 91.329 95.136 91.378 95.701 91.411C96.909 91.483 96.833 90.807 96.833 101.487C96.833 112.234 96.728 111.473 98.2 111.38C99.96 111.269 99.833 111.653 99.833 106.431C99.833 101.475 99.792 101.686 100.833 101.362C102.011 100.996 103.259 100.953 103.857 101.258C105.211 101.946 105.321 102.437 105.244 107.442C105.178 111.714 105.095 111.496 106.726 111.374C108.43 111.246 108.301 111.669 108.273 106.295C108.244 100.784 108.273 100.948 107.104 99.764C106.455 99.108 104.832 98.886 103.333 99.25C103.104 99.305 102.744 99.386 102.532 99.43C102.321 99.474 101.656 99.695 101.054 99.922C100.453 100.148 99.933 100.333 99.899 100.333C99.866 100.333 99.818 97.952 99.794 95.042L99.75 89.75L99.083 89.723C98.717 89.708 98.117 89.761 97.75 89.841ZM129.319 89.733C129.257 89.792 128.962 89.848 127.452 90.088C127.197 90.128 126.822 90.25 126.619 90.359C126.416 90.468 126.212 90.544 126.167 90.528C126.121 90.513 126.083 90.704 126.083 90.953C126.083 91.353 126.151 91.41 126.659 91.435C127.873 91.497 127.822 91.049 127.831 101.712C127.839 112.402 127.713 111.54 129.249 111.387C130.966 111.216 130.833 111.632 130.833 106.415V101.842L131.295 101.603C131.969 101.254 133.612 100.987 134.354 101.106C136.01 101.371 136.3 102.335 136.215 107.308C136.172 109.892 136.209 111.1 136.338 111.256C136.549 111.509 138.096 111.44 138.864 111.142L139.311 110.969L139.317 106.514C139.324 101.674 139.264 101.229 138.487 100.287C137.212 98.741 135.901 98.677 131.875 99.965L130.833 100.298V95.183C130.833 91.426 130.78 90.014 130.633 89.867C130.448 89.682 129.478 89.582 129.319 89.733ZM219.551 92.718C218.616 92.996 218.293 94.513 218.973 95.436C219.675 96.388 221.614 95.965 221.903 94.797C222.307 93.164 221.237 92.218 219.551 92.718ZM240.516 96.104C238.732 96.571 238.753 96.544 238.811 98.208L238.862 99.667L238.347 99.688C238.065 99.699 237.758 99.727 237.667 99.75C237.575 99.773 237.345 99.801 237.157 99.813C236.865 99.83 236.821 99.927 236.865 100.458L236.917 101.083L237.833 101.084L238.75 101.085L238.774 105.001C238.806 110.058 238.952 110.554 240.62 111.27C241.694 111.731 245.012 111.12 246.314 110.222C246.521 110.079 245.924 109.16 245.685 109.254C242.459 110.512 241.75 109.685 241.75 104.667V101.083L243.542 101.036L245.333 100.989V100.258C245.333 99.368 245.335 99.369 243.278 99.459L241.639 99.531L241.685 97.847C241.738 95.859 241.695 95.796 240.516 96.104ZM172.75 96.315L171.917 96.611L171.869 98.139L171.821 99.667L171.327 99.688C171.056 99.699 170.683 99.727 170.5 99.75C170.317 99.773 170.092 99.801 170 99.813C169.908 99.824 169.833 100.087 169.833 100.397C169.833 101.037 170.008 101.128 171.135 101.074L171.853 101.039L171.846 105.061C171.837 109.624 171.839 109.667 172.028 109.667C172.104 109.667 172.167 109.764 172.167 109.884C172.167 110.605 173.741 111.5 175.008 111.5C175.716 111.5 179.003 110.553 179.289 110.266C179.495 110.06 178.951 109.15 178.685 109.256C175.486 110.528 174.729 109.605 174.798 104.517L174.846 101H176.599H178.352L178.301 100.208L178.25 99.417L176.542 99.469L174.833 99.522L174.813 98.011C174.801 97.18 174.782 96.406 174.771 96.292C174.739 95.972 173.679 95.984 172.75 96.315ZM58.128 99.092C58.104 99.116 57.85 99.172 57.565 99.216C57.279 99.261 56.886 99.383 56.69 99.488C56.494 99.593 56.332 99.62 56.331 99.548C56.329 99.476 56.273 99.492 56.206 99.584C56.138 99.675 55.859 99.863 55.585 100C53.719 100.934 52.556 103.356 52.71 105.987C53.148 113.474 64.624 113.262 65.254 105.755C65.358 104.511 64.955 102.333 64.621 102.333C64.524 102.333 64.491 102.287 64.548 102.23C64.604 102.173 64.561 102.032 64.45 101.915C64.34 101.799 64.1 101.494 63.917 101.238C63.397 100.513 62.841 100 62.576 100C62.442 100 62.333 99.939 62.333 99.864C62.333 99.458 58.483 98.752 58.128 99.092ZM71.333 99.253C70.298 99.483 68.36 100.104 68.035 100.309C67.875 100.41 67.863 100.557 67.989 100.889C68.082 101.133 68.104 101.336 68.038 101.338C67.971 101.341 68.047 101.419 68.206 101.512C68.399 101.624 68.599 101.625 68.805 101.515C69.093 101.361 69.434 101.27 70.5 101.061C73.15 100.541 74.26 101.179 74.456 103.334C74.537 104.234 74.515 104.334 74.231 104.337C72.902 104.354 69.52 104.833 69.404 105.021C69.354 105.101 69.185 105.167 69.028 105.167C67.965 105.167 66.897 107.041 67.043 108.651C67.267 111.127 69.23 112.022 72.342 111.069C74.549 110.393 74.553 110.393 74.781 110.997L74.978 111.519L76.031 111.404C77.497 111.244 77.718 111.106 77.565 110.447C77.497 110.155 77.435 108.079 77.427 105.833C77.409 100.813 77.214 100.185 75.417 99.352C74.763 99.049 72.495 98.994 71.333 99.253ZM83.486 99.068C83.448 99.105 83.192 99.175 82.917 99.224C82.642 99.274 82.229 99.356 82 99.408C81.771 99.46 81.433 99.531 81.25 99.567C79.799 99.844 79.479 100.012 79.531 100.468C79.574 100.832 79.662 100.911 80 100.886C80.323 100.863 81.104 101.059 81.366 101.229C81.385 101.24 81.441 103.537 81.491 106.333L81.583 111.417L82.739 111.365C84.646 111.279 84.5 111.696 84.5 106.333V101.679L85.542 101.36C89.283 100.215 90.02 101.273 89.885 107.595C89.795 111.751 89.717 111.568 91.488 111.346C92.151 111.263 92.727 111.162 92.766 111.123C92.998 110.891 93.005 102.472 92.773 101.692C91.95 98.92 90.228 98.442 85.917 99.788C85.458 99.931 85.012 100.112 84.925 100.191C84.661 100.429 84.541 100.355 84.421 99.876C84.246 99.178 83.783 98.778 83.486 99.068ZM119.466 99.085C119.401 99.152 118.914 99.313 118.383 99.443C116.968 99.789 116.978 99.786 116.208 100.063C115.504 100.317 115.5 100.316 115.5 99.93C115.5 99.229 115.111 99.079 113.862 99.299C111.144 99.776 110.458 99.982 110.575 100.288C110.625 100.419 110.667 100.634 110.667 100.765C110.667 100.939 110.821 100.984 111.234 100.933C112.478 100.779 112.5 100.873 112.5 106.306C112.5 111.795 112.428 111.535 113.903 111.388C115.634 111.216 115.5 111.632 115.5 106.431C115.5 102.584 115.539 101.842 115.75 101.667C115.888 101.553 116 101.515 116 101.583C116 101.652 116.102 101.623 116.228 101.519C116.763 101.074 118.968 100.97 119.75 101.353C120.798 101.865 120.918 102.46 120.888 107C120.858 111.681 120.805 111.508 122.219 111.389C123.999 111.24 123.886 111.576 123.933 106.326C123.983 100.925 123.837 100.343 122.194 99.377C121.785 99.136 119.639 98.907 119.466 99.085ZM146 99.324C143.462 99.889 142.556 100.407 142.876 101.11C143.087 101.573 143.485 101.658 144.167 101.384C144.815 101.123 145.725 100.991 146.833 100.999C148.114 101.007 148.333 101.036 148.333 101.194C148.333 101.271 148.428 101.333 148.543 101.333C148.923 101.333 149.208 102.045 149.281 103.174L149.354 104.284L148.469 104.391C147.982 104.449 147.283 104.501 146.917 104.506C146.052 104.516 143.896 105.037 143.636 105.298C143.524 105.409 143.372 105.5 143.298 105.5C142.491 105.5 141.665 107.769 141.985 109.104C142.536 111.396 144.476 112.016 147.724 110.939L149.365 110.394L149.526 110.819C149.749 111.406 149.928 111.48 150.901 111.393C152.569 111.243 152.557 111.251 152.434 110.366C152.374 109.936 152.323 107.925 152.322 105.898C152.319 102.076 152.217 101.282 151.614 100.384C150.76 99.113 148.698 98.723 146 99.324ZM163.296 99.093C163.25 99.139 163.07 99.204 162.897 99.238C162.724 99.271 162.245 99.389 161.833 99.5C161.421 99.611 161.046 99.7 161 99.698C160.954 99.697 160.823 99.773 160.708 99.868C160.594 99.963 160.5 99.993 160.5 99.935C160.5 99.877 160.237 99.939 159.917 100.073C159.347 100.31 159.333 100.307 159.333 99.929C159.333 99.227 157.522 98.888 156.651 99.426C156.582 99.469 156.134 99.578 155.654 99.669C154.837 99.824 154.33 100.071 154.336 100.312C154.344 100.631 154.69 100.861 155.266 100.93C156.337 101.059 156.333 101.041 156.333 106.332C156.333 111.743 156.262 111.483 157.717 111.374C159.466 111.243 159.333 111.656 159.333 106.335V101.682L159.958 101.506C162.494 100.791 164.115 101.044 164.463 102.208C164.483 102.277 164.506 102.352 164.513 102.375C164.676 102.909 164.708 103.731 164.696 107.123C164.679 111.66 164.638 111.516 165.917 111.397C167.132 111.284 167.634 111.16 167.71 110.954C167.917 110.393 167.742 101.566 167.514 101.083C167.384 100.808 167.272 100.54 167.264 100.488C167.243 100.342 166.808 99.947 166.196 99.516C165.674 99.149 163.55 98.839 163.296 99.093ZM188.167 99.114C187.52 99.22 185.991 99.797 185.158 100.249C184.744 100.474 184.733 100.466 184.766 99.996C184.832 99.033 184.083 98.96 181.338 99.664C179.627 100.103 179.649 100.09 179.815 100.539C179.921 100.825 180.092 100.904 180.636 100.917C181.618 100.942 181.579 100.733 181.632 106.166C181.688 111.87 181.574 111.511 183.283 111.351C184.864 111.203 184.75 111.584 184.75 106.445V101.917L185.301 101.616C186.719 100.843 187.834 101.095 187.889 102.201C187.916 102.734 187.939 102.75 188.662 102.763C190.112 102.788 191.248 101.396 190.61 100.375C190.539 100.26 190.534 100.167 190.599 100.167C190.863 100.167 190.048 99.439 189.547 99.227C189.005 98.998 188.918 98.99 188.167 99.114ZM196.913 99.162C189.712 100.677 189.715 111.417 196.917 111.417C199.158 111.417 203.581 110.045 202.832 109.582C202.738 109.524 202.695 109.422 202.736 109.356C202.994 108.939 202.511 108.798 201.732 109.064C200.069 109.63 196.667 109.451 196.667 108.796C196.667 108.725 196.583 108.667 196.48 108.667C195.964 108.667 194.816 106.822 194.603 105.648L194.494 105.047L197.205 104.937C198.696 104.877 200.382 104.783 200.95 104.728L201.984 104.63L202.174 103.714C202.814 100.633 200.292 98.451 196.913 99.162ZM229.687 99.281C223.037 101.03 223.158 111.164 229.833 111.472C231.247 111.538 234.611 110.778 235.108 110.281C235.171 110.218 235.397 110.167 235.611 110.167C235.825 110.167 236.006 110.11 236.013 110.042C236.02 109.973 236.048 109.8 236.076 109.658C236.209 108.988 235.748 108.774 234.885 109.107C231.689 110.337 228.394 108.726 227.937 105.708L227.829 105L228.706 104.996C229.625 104.992 231.632 104.891 233.958 104.731C234.812 104.672 235.343 104.563 235.359 104.443C235.387 104.238 235.439 103.735 235.516 102.917C235.622 101.79 234.021 98.923 233.549 99.395C233.507 99.437 233.235 99.375 232.945 99.258C232.251 98.977 230.805 98.987 229.687 99.281ZM249.917 99.273C249.367 99.392 248.767 99.526 248.583 99.571C248.4 99.615 248.032 99.696 247.766 99.75C246.479 100.013 246.346 100.899 247.587 100.935C248.662 100.966 248.667 100.991 248.667 106.345C248.667 111.883 248.557 111.545 250.296 111.359C251.866 111.191 251.743 111.599 251.799 106.348L251.848 101.723L252.716 101.45C256.578 100.237 257.148 100.983 257.159 107.274C257.168 111.83 257.064 111.535 258.611 111.383C260.292 111.218 260.167 111.609 260.166 106.536C260.165 104.067 260.09 101.815 259.997 101.48C259.428 99.43 257.511 98.569 255.105 99.284C254.648 99.419 254.156 99.555 254.012 99.586C253.868 99.616 253.281 99.788 252.708 99.969L251.667 100.298L251.664 99.941C251.658 99.139 251.253 98.984 249.917 99.273ZM267.917 99.104C266.649 99.296 263.667 100.296 263.667 100.529C263.667 100.614 263.779 100.9 263.916 101.166L264.166 101.649L264.958 101.422C268.619 100.373 269.957 100.836 270.245 103.25C270.356 104.183 270.235 104.29 268.916 104.414C264.495 104.832 263.086 105.624 262.775 107.868C262.351 110.935 265.661 112.413 269.25 110.76C270.071 110.381 270.398 110.379 270.466 110.75C270.572 111.322 270.962 111.487 271.976 111.388C273.072 111.282 273.565 111.07 273.382 110.783C273.312 110.673 273.237 108.671 273.216 106.333C273.181 102.623 273.134 101.512 272.994 101.167C272.976 101.121 272.969 101.027 272.98 100.958C272.991 100.89 272.925 100.833 272.833 100.833C272.742 100.833 272.667 100.759 272.667 100.668C272.667 99.63 270.075 98.777 267.917 99.104ZM279.48 99.075C279.439 99.117 279.145 99.187 278.827 99.23C278.51 99.274 278.063 99.357 277.833 99.415C277.604 99.473 277.079 99.599 276.667 99.695C275.288 100.015 275.321 99.995 275.385 100.471C275.438 100.861 275.522 100.917 276.055 100.922C277.197 100.932 277.188 100.889 277.172 106.243C277.155 111.76 277.076 111.477 278.624 111.373C280.479 111.247 280.333 111.675 280.333 106.347C280.333 101.49 280.326 101.541 281 101.555C281.046 101.556 281.256 101.464 281.468 101.351C281.679 101.237 282.313 101.118 282.876 101.085C285.219 100.949 285.558 101.763 285.457 107.294C285.377 111.735 285.321 111.561 286.772 111.396C288.65 111.183 288.477 111.689 288.481 106.392L288.485 101.767L288.868 101.571C289.32 101.339 291.455 100.953 291.643 101.069C291.715 101.113 291.978 101.186 292.227 101.232C293.446 101.453 293.665 102.369 293.666 107.274C293.667 111.83 293.563 111.535 295.111 111.383C296.822 111.215 296.693 111.656 296.634 106.197C296.588 101.808 296.556 101.362 296.25 100.753C295.204 98.671 292.559 98.507 288.547 100.274C288.023 100.505 287.996 100.496 287.341 99.86C286.102 98.658 284.12 98.77 280.646 100.239C280.443 100.324 280.345 100.234 280.257 99.886C280.087 99.209 279.725 98.831 279.48 99.075ZM320.5 99.441C318.063 99.942 318.134 99.91 318.197 100.457C318.239 100.82 318.337 100.918 318.667 100.922C320.042 100.939 320.021 100.853 320.005 106.523C319.994 110.26 320.038 111.318 320.204 111.375C320.849 111.594 323.194 111.192 323.145 110.87C323.06 110.304 323.201 101.87 323.299 101.717C323.368 101.608 323.663 101.476 323.954 101.425C324.245 101.374 324.687 101.254 324.937 101.159C325.891 100.796 327.027 101.001 327.687 101.654C328.469 102.428 328.537 102.936 328.473 107.512C328.411 111.943 328.216 111.65 330.942 111.237L331.468 111.158L331.504 109.287C331.57 105.861 331.535 102.424 331.428 101.833C331.37 101.513 331.312 101.156 331.3 101.042C331.288 100.927 331.203 100.833 331.111 100.833C331.019 100.833 330.986 100.792 331.037 100.74C331.157 100.621 330.381 99.794 329.805 99.429C328.944 98.882 325.835 99.062 325.042 99.705C324.927 99.798 324.833 99.828 324.833 99.771C324.833 99.714 324.461 99.809 324.007 99.982L323.18 100.296L322.999 99.746C322.752 99 322.686 98.992 320.5 99.441ZM204.626 99.563C202.966 99.983 202.807 100.09 203.019 100.644C203.13 100.934 203.26 101.014 203.513 100.948C204.238 100.759 204.818 101.153 205.27 102.142C206.704 105.283 208.358 109.083 208.42 109.378C208.551 110 209.431 111.416 209.722 111.471C210.639 111.646 211.095 110.994 212.962 106.833C213.147 106.421 213.982 104.652 214.816 102.903C216.667 99.023 216.658 99.091 215.31 99.213C213.848 99.346 214.037 99.056 212.085 104.167C211.281 106.274 210.78 107.505 210.746 107.456C210.731 107.434 210.44 106.704 210.1 105.833C209.759 104.962 209.411 104.1 209.328 103.917C209.244 103.733 208.833 102.688 208.415 101.593C207.355 98.818 207.424 98.855 204.626 99.563ZM218.667 99.628C216.87 100.07 216.813 100.105 217.017 100.638C217.142 100.964 217.245 101.009 217.655 100.919C218.785 100.671 218.833 100.894 218.833 106.313C218.833 109.96 218.884 111.168 219.042 111.298C219.234 111.458 221.573 111.316 221.755 111.133C221.87 111.019 221.859 99.51 221.744 99.324C221.59 99.074 220.466 99.185 218.667 99.628ZM306.75 99.357C304.487 99.887 304.148 100.037 304.2 100.487C304.228 100.73 304.359 100.921 304.5 100.926C305.582 100.965 305.947 101.175 306.299 101.961C306.494 102.395 307.036 103.612 307.504 104.667C310.853 112.212 310.482 111.5 311.06 111.497C311.837 111.494 311.849 111.478 313.333 108.417C314.088 106.858 315.089 104.796 315.556 103.833C316.024 102.871 316.39 102.027 316.37 101.958C316.35 101.89 316.408 101.833 316.5 101.833C316.592 101.833 316.655 101.777 316.641 101.708C316.627 101.64 316.844 101.096 317.124 100.5C317.746 99.179 317.709 99.105 316.488 99.224C315.1 99.36 314.966 99.495 314.249 101.482C313.897 102.454 313.497 103.513 313.359 103.833C313.221 104.154 313.084 104.548 313.055 104.708C313.026 104.868 312.858 105.318 312.682 105.708C312.506 106.098 312.264 106.7 312.145 107.047L311.929 107.678L311.285 106.047C310.931 105.15 310.621 104.342 310.596 104.25C310.534 104.025 310.334 103.489 310.16 103.083C310.081 102.9 309.896 102.377 309.748 101.921C309.6 101.465 309.415 101.015 309.337 100.921C309.259 100.827 309.2 100.712 309.205 100.667C309.346 99.525 308.336 98.986 306.75 99.357ZM45.313 100.771C45.6 100.828 46.054 101.1 46.322 101.374L46.81 101.873L46.827 105.359L46.844 108.846L46.297 109.075C45.393 109.452 43.78 109.725 43.151 109.607C40.369 109.085 39.341 103.099 41.722 101.283C42.46 100.72 43.977 100.504 45.313 100.771ZM59.821 100.994C60.986 101.588 61.632 102.719 61.969 104.754C62.115 105.634 62.108 106.072 61.931 107.378C61.417 111.166 57.047 110.762 56.026 106.833C54.995 102.866 57.11 99.611 59.821 100.994ZM198.599 101.18C199.029 101.536 199.333 102.282 199.333 102.976V103.636L197.708 103.741C196.815 103.799 195.727 103.888 195.292 103.939C194.379 104.045 194.315 103.9 194.742 102.689C195.332 101.016 197.418 100.2 198.599 101.18ZM231.834 101.084C232.146 101.277 232.5 102.253 232.5 102.922V103.627L230.875 103.738C229.981 103.798 228.931 103.891 228.542 103.943C227.874 104.032 227.833 104.014 227.833 103.627C227.833 101.567 230.191 100.068 231.834 101.084ZM149.273 107.29L149.25 108.917L148.641 109.214C146.558 110.233 144.632 109.292 144.889 107.383C145.043 106.24 145.857 105.844 148.5 105.624C149.324 105.555 149.298 105.499 149.273 107.29ZM270.191 106.22C270.224 106.511 270.212 107.27 270.167 107.907L270.083 109.063L269.25 109.358C267.168 110.095 265.581 109.245 265.791 107.506C265.933 106.321 266.507 105.942 268.503 105.71C270.034 105.533 270.118 105.558 270.191 106.22ZM74.375 105.875C74.352 105.944 74.333 106.674 74.333 107.498V108.996L73.708 109.259C71.794 110.065 69.727 109.308 69.929 107.875C69.945 107.76 69.968 107.518 69.979 107.336C70.021 106.676 70.85 106.011 71.833 105.849C72.89 105.675 74.436 105.691 74.375 105.875ZM300.576 108.275C299.447 108.838 299.406 110.851 300.512 111.423C301.88 112.13 303.333 111.319 303.333 109.847C303.333 108.265 302.055 107.536 300.576 108.275Z" fill="#33245C"/>
<path fill-rule="evenodd" clip-rule="evenodd" d="M248.386 7.56201C247.746 8.23801 246.703 9.41201 246.069 10.171C244.003 12.645 241.76 15.245 241.473 15.5C240.881 16.026 239.333 17.924 239.333 18.124C239.333 18.288 240.471 18.333 244.549 18.333H249.765L250.767 16.958C251.319 16.202 251.898 15.377 252.055 15.125C252.461 14.474 252.464 14.475 253.894 16.5L255.19 18.333H260.428C264.244 18.333 265.667 18.282 265.667 18.143C265.667 17.952 264.694 16.755 263.655 15.667C262.991 14.972 259.885 11.396 258.857 10.142C258.457 9.65501 257.527 8.59801 256.789 7.79501L255.447 6.33301H252.499H249.55L248.386 7.56201ZM0 42.333V77.167H12.882C26.876 77.167 26.672 77.179 28.634 76.228C30.068 75.534 32.022 73.488 32.513 72.167L32.917 71.083V42.75V14.417L32.519 13.333C31.969 11.836 31.236 10.751 30.014 9.62201C27.686 7.47001 27.937 7.50101 12.458 7.50001H0V42.333ZM132.5 42.333V77.167H138.5H144.5V54.333V31.5H146.577C148.461 31.5 148.671 31.53 148.827 31.822C148.944 32.04 149 39.457 149 54.656V77.167H155.167H161.333L161.33 53.292C161.328 38.434 161.264 28.976 161.162 28.25C160.785 25.587 158.926 23.249 156.327 22.167L154.926 21.583L149.713 21.535L144.5 21.487V14.493V7.50001H138.5H132.5V42.333ZM166.833 42.333V77.167H173.583H180.333L180.346 58.542L180.359 39.917L181 43.75C183.067 56.124 185.518 71.409 185.908 74.353C186.061 75.51 186.228 76.616 186.279 76.811L186.372 77.167H194.603H202.833V42.333V7.50001H196.167H189.502L189.459 24.52L189.417 41.541L188.289 33.062C187.669 28.399 186.713 21.246 186.164 17.167C185.616 13.087 185.167 9.41201 185.165 9.00001C185.163 8.58701 185.117 8.08101 185.062 7.87501L184.961 7.50001H175.897H166.833V42.333ZM206.167 42.333V77.167H212.167H218.167V54.333V31.5H220.153C221.246 31.5 222.258 31.546 222.403 31.601C222.642 31.693 222.667 33.859 222.667 54.434V77.167H228.833H235V53.023C235 37.657 234.939 28.552 234.834 27.981C234.374 25.503 232.613 23.358 230.083 22.196L228.75 21.583L223.458 21.533L218.167 21.483V14.491V7.50001H212.167H206.167V42.333ZM19.182 21.477C19.694 22.11 19.679 62.821 19.167 63.333C18.86 63.64 18.611 63.667 16.083 63.667H13.333V42.322V20.978L16.098 21.03C18.773 21.082 18.874 21.096 19.182 21.477ZM40.882 21.756C38.339 22.441 37.006 23.911 36.516 26.572C36.134 28.641 36.273 71.665 36.665 72.827C37.316 74.76 38.54 75.991 40.583 76.767C42.011 77.309 59.604 77.249 61.204 76.696C63.174 76.016 64.537 74.453 64.979 72.367C65.285 70.928 65.235 27.932 64.926 26.476C64.371 23.855 63 22.43 60.38 21.747C59.023 21.394 42.197 21.401 40.882 21.756ZM70.333 31V40.5H75.417H80.5V37.652V34.805L82.4 34.861C85.159 34.942 85 34.678 85 39.182V42.811L79.958 42.872C73.639 42.947 72 43.479 69.91 46.134C68.348 48.119 68.423 47.468 68.369 59.403C68.311 72.146 68.316 72.181 70.628 74.602C73.14 77.233 72.743 77.167 86.019 77.167H97.008L96.956 53.375L96.903 29.583L96.541 28.366C95.636 25.329 93.436 22.794 90.869 21.831C90.026 21.515 89.555 21.5 80.16 21.5H70.333V31ZM100.333 49.333V77.167H106.333H112.333V54.333V31.5H114.407C116.361 31.5 116.496 31.521 116.741 31.87C116.972 32.201 117 34.643 117 54.704V77.167H123.083H129.167L129.166 53.125C129.165 24.748 129.302 26.438 126.79 23.926C124.347 21.482 124.459 21.5 111.303 21.5H100.333V49.333ZM240.167 30.995V40.5H245.25H250.333V37.652V34.805L252.265 34.861C254.968 34.939 254.833 34.708 254.833 39.257V42.811L249.792 42.872C243.66 42.945 242.176 43.372 240.107 45.663C238.16 47.818 238.167 47.768 238.167 59.917C238.167 72.063 238.154 71.967 240.063 74.213C242.59 77.184 242.496 77.167 255.857 77.167H266.846L266.796 53.125L266.746 29.083L266.368 28.085C265.381 25.475 263.573 23.273 261.577 22.25L260.277 21.583L250.222 21.537L240.167 21.49V30.995ZM270.167 49.333V77.167H276.083H282V54.333V31.5H284.157C286.197 31.5 286.328 31.52 286.574 31.87C286.806 32.201 286.833 34.643 286.833 54.704V77.167H292.917H299L298.997 53.292C298.995 38.434 298.931 28.976 298.828 28.25C298.401 25.235 296.105 22.674 293.011 21.766C292.223 21.534 290.689 21.5 281.136 21.5H270.167V49.333ZM52.633 33.033C52.923 33.323 52.923 65.177 52.633 65.467C52.262 65.838 49.064 65.731 48.667 65.333C48.178 64.844 48.137 33.889 48.625 33.464C49.301 32.875 52.167 32.567 52.633 33.033ZM85 59.25V65.667H82.75H80.5V59.583C80.5 52.197 80.256 52.833 83.083 52.833H85V59.25ZM254.833 59.25V65.667H252.583H250.333V59.583C250.333 52.197 250.09 52.833 252.917 52.833H254.833V59.25ZM48.256 89.657C48.198 89.75 48.406 89.774 48.771 89.714C49.25 89.637 49.432 89.682 49.608 89.923C49.795 90.178 49.833 90.186 49.833 89.966C49.833 89.539 48.491 89.276 48.256 89.657ZM98.5 89.566C98.5 89.602 98.794 89.66 99.153 89.694C99.512 89.728 99.77 89.699 99.726 89.628C99.647 89.5 98.5 89.442 98.5 89.566ZM129.917 89.623C130.851 89.76 130.83 89.636 130.873 95.229L130.912 100.417L130.958 95.285C131.01 89.559 130.999 89.486 130.036 89.525C129.469 89.548 129.459 89.556 129.917 89.623ZM128.435 89.803C128.389 89.878 128.572 89.907 128.842 89.868C129.112 89.828 129.333 89.767 129.333 89.731C129.333 89.604 128.518 89.67 128.435 89.803ZM46.333 90C45.99 90.11 45.975 90.136 46.25 90.148C46.433 90.155 46.696 90.089 46.833 90C47.125 89.811 46.923 89.811 46.333 90ZM99.869 95.125C99.849 97.99 99.89 100.333 99.958 100.334C100.027 100.334 100.064 98.815 100.041 96.959C99.96 90.529 99.904 89.941 99.869 95.125ZM49.745 99.75C49.745 104.975 49.766 107.088 49.792 104.446C49.817 101.805 49.817 97.53 49.792 94.946C49.766 92.363 49.745 94.525 49.745 99.75ZM46.667 95.819C46.667 98.186 46.615 98.993 46.458 99.056C46.334 99.107 46.367 99.146 46.542 99.154C46.81 99.166 46.833 98.906 46.833 95.917C46.833 94.129 46.796 92.667 46.75 92.667C46.704 92.667 46.667 94.085 46.667 95.819ZM127.745 101.917C127.745 107.05 127.766 109.174 127.792 106.637C127.817 104.1 127.817 99.9 127.792 97.304C127.766 94.707 127.745 96.783 127.745 101.917ZM221.755 93.083C222.368 94.921 221.525 96.185 219.848 95.94L219.25 95.852L219.76 96.024C221.432 96.589 222.843 94.705 221.899 93.167C221.725 92.882 221.679 92.856 221.755 93.083ZM173.833 95.898C173.833 95.933 174.054 95.995 174.325 96.034C174.595 96.074 174.778 96.045 174.731 95.97C174.649 95.836 173.833 95.771 173.833 95.898ZM171.728 96.702C171.519 97.041 171.436 99.667 171.634 99.667C171.742 99.667 171.831 99.051 171.864 98.083C171.893 97.212 171.902 96.499 171.885 96.5C171.867 96.5 171.797 96.591 171.728 96.702ZM241.727 98C241.727 98.871 241.755 99.227 241.789 98.792C241.824 98.356 241.824 97.644 241.789 97.208C241.755 96.773 241.727 97.129 241.727 98ZM238.611 97.278C238.431 97.458 238.482 99.667 238.667 99.667C238.763 99.667 238.833 99.139 238.833 98.417C238.833 97.161 238.816 97.073 238.611 97.278ZM114.667 99.122C114.896 99.164 115.196 99.285 115.333 99.391C115.551 99.558 115.554 99.545 115.355 99.292C115.229 99.131 114.929 99.01 114.688 99.023L114.25 99.045L114.667 99.122ZM158.5 99.122C158.729 99.164 159.029 99.285 159.167 99.391C159.384 99.558 159.387 99.545 159.188 99.292C159.062 99.131 158.763 99.01 158.521 99.023L158.083 99.045L158.5 99.122ZM184 99.122C184.229 99.164 184.51 99.276 184.625 99.37C184.765 99.485 184.833 99.485 184.833 99.372C184.833 99.158 184.414 98.993 183.945 99.023C183.63 99.042 183.637 99.055 184 99.122ZM189.5 99.187C189.729 99.279 190.07 99.48 190.258 99.635C190.446 99.79 190.388 99.71 190.13 99.458C189.872 99.206 189.531 99.005 189.372 99.011C189.173 99.018 189.213 99.073 189.5 99.187ZM215.948 99.108C216.149 99.152 216.351 99.314 216.397 99.469C216.457 99.671 216.471 99.657 216.447 99.417C216.424 99.19 216.28 99.075 215.998 99.056C215.651 99.033 215.642 99.042 215.948 99.108ZM221.167 99.122C221.396 99.164 221.677 99.276 221.792 99.37C221.931 99.485 222 99.485 222 99.372C222 99.158 221.581 98.993 221.111 99.023C220.797 99.042 220.804 99.055 221.167 99.122ZM308.083 99.12C308.267 99.165 308.548 99.317 308.708 99.46C309.071 99.781 309.095 99.619 308.738 99.262C308.594 99.118 308.313 99.009 308.113 99.019C307.775 99.037 307.773 99.044 308.083 99.12ZM322.738 99.262C322.882 99.406 323.006 99.65 323.013 99.804C323.021 99.962 323.062 99.997 323.107 99.884C323.209 99.634 322.88 99 322.649 99C322.554 99 322.594 99.118 322.738 99.262ZM137.598 99.482C137.882 99.655 138.318 100.048 138.569 100.356L139.025 100.917L138.766 100.391C138.532 99.914 137.593 99.166 137.23 99.167C137.149 99.168 137.315 99.309 137.598 99.482ZM166.083 99.407C166.267 99.554 166.555 99.789 166.724 99.932C166.893 100.074 167.066 100.156 167.109 100.113C167.151 100.071 166.975 99.89 166.718 99.712C166.094 99.28 165.664 99.074 166.083 99.407ZM251.61 99.7C251.75 100.437 251.833 100.501 251.833 99.871C251.833 99.586 251.759 99.307 251.669 99.252C251.567 99.188 251.544 99.356 251.61 99.7ZM287.292 99.808C287.682 100.189 288.052 100.5 288.115 100.5C288.291 100.5 287.292 99.494 286.917 99.294C286.733 99.196 286.902 99.427 287.292 99.808ZM175.625 99.451C175.831 99.491 176.169 99.491 176.375 99.451C176.581 99.411 176.412 99.379 176 99.379C175.588 99.379 175.419 99.411 175.625 99.451ZM234.027 99.689C234.271 99.906 234.636 100.271 234.838 100.5L235.204 100.917L234.965 100.512C234.833 100.289 234.468 99.924 234.154 99.701C233.589 99.299 233.588 99.299 234.027 99.689ZM242.625 99.451C242.831 99.491 243.169 99.491 243.375 99.451C243.581 99.411 243.412 99.379 243 99.379C242.588 99.379 242.419 99.411 242.625 99.451ZM258.514 99.375C258.552 99.398 258.808 99.604 259.083 99.833L259.583 100.25L259.179 99.792C258.957 99.54 258.701 99.333 258.61 99.333C258.519 99.333 258.476 99.352 258.514 99.375ZM295.586 99.931C295.951 100.29 296.282 100.564 296.32 100.541C296.429 100.475 295.623 99.657 295.252 99.458C295.07 99.36 295.22 99.573 295.586 99.931ZM330.352 99.875C330.663 100.192 330.947 100.426 330.985 100.394C331.085 100.308 330.472 99.664 330.104 99.467C329.93 99.374 330.042 99.557 330.352 99.875ZM272.097 99.87C272.273 100.119 272.473 100.325 272.542 100.328C272.61 100.331 272.667 100.446 272.667 100.583C272.667 100.721 272.744 100.833 272.839 100.833C273.09 100.833 272.788 100.332 272.237 99.833L271.777 99.417L272.097 99.87ZM107.176 99.875C107.309 99.99 107.56 100.233 107.734 100.417C107.968 100.662 107.954 100.606 107.681 100.208C107.477 99.91 107.226 99.667 107.123 99.667C107.013 99.667 107.035 99.752 107.176 99.875ZM122.833 99.917C122.947 100.054 123.116 100.167 123.207 100.167C123.3 100.167 123.282 100.056 123.167 99.917C123.053 99.779 122.884 99.667 122.793 99.667C122.7 99.667 122.718 99.777 122.833 99.917ZM184.75 100.062C184.75 100.307 184.828 100.428 184.955 100.379C185.103 100.322 185.113 100.212 184.991 99.983C184.773 99.577 184.75 99.584 184.75 100.062ZM221.836 105.448C221.838 109.256 221.894 111.164 222 111C222.222 110.657 222.222 99.887 222 99.75C221.89 99.682 221.834 101.623 221.836 105.448ZM142.958 100.18C142.798 100.273 142.668 100.44 142.669 100.55C142.671 100.688 142.71 100.694 142.794 100.569C142.862 100.47 143.067 100.303 143.25 100.199C143.433 100.095 143.508 100.01 143.417 100.01C143.325 100.01 143.119 100.087 142.958 100.18ZM193.917 100.431L193.417 100.861L193.958 100.502C194.256 100.305 194.5 100.112 194.5 100.072C194.5 99.947 194.429 99.991 193.917 100.431ZM67.755 100.326C67.625 100.536 67.83 101.333 68.014 101.333C68.093 101.333 68.082 101.133 67.989 100.889C67.863 100.557 67.875 100.41 68.035 100.308C68.187 100.211 68.192 100.171 68.052 100.169C67.942 100.168 67.809 100.238 67.755 100.326ZM54.308 100.792C52.935 102.286 51.818 106.223 52.625 106.725C52.694 106.768 52.725 106.287 52.695 105.657C52.605 103.797 53.308 101.95 54.545 100.792C54.815 100.54 54.966 100.333 54.882 100.333C54.798 100.333 54.54 100.54 54.308 100.792ZM63.687 100.917C63.813 101.1 63.961 101.287 64.014 101.333C64.068 101.379 64.197 101.567 64.301 101.75C64.405 101.933 64.492 101.991 64.495 101.878C64.498 101.764 64.265 101.427 63.978 101.128C63.691 100.828 63.56 100.733 63.687 100.917ZM316.796 101.177C316.642 101.447 316.575 101.667 316.648 101.667C316.785 101.667 317.218 100.829 317.128 100.739C317.1 100.711 316.951 100.908 316.796 101.177ZM38.833 101.417C38.522 101.737 38.339 101.995 38.426 101.988C38.576 101.977 39.606 100.833 39.466 100.833C39.429 100.833 39.144 101.096 38.833 101.417ZM41.583 101.404C41.217 101.715 40.973 102.026 41.042 102.096C41.11 102.165 41.167 102.133 41.167 102.024C41.167 101.915 41.519 101.603 41.949 101.33C42.38 101.057 42.623 100.834 42.491 100.836C42.358 100.837 41.95 101.093 41.583 101.404ZM45.602 100.997C45.796 101.075 46.151 101.389 46.392 101.694C46.633 102 46.83 102.17 46.831 102.073C46.834 101.787 45.818 100.832 45.522 100.844C45.325 100.852 45.348 100.894 45.602 100.997ZM71.708 100.948C71.869 100.99 72.131 100.99 72.292 100.948C72.452 100.906 72.321 100.872 72 100.872C71.679 100.872 71.548 100.906 71.708 100.948ZM111.956 101.18C112.321 101.591 112.329 101.695 112.372 106.494C112.41 110.674 112.453 111.4 112.667 111.465C112.868 111.527 112.876 111.499 112.708 111.321C112.552 111.155 112.499 109.917 112.497 106.342C112.496 103.725 112.44 101.508 112.372 101.417C112.305 101.325 112.1 101.14 111.917 101.005C111.635 100.798 111.641 100.825 111.956 101.18ZM142.737 101.055C142.79 101.223 142.833 101.429 142.833 101.514C142.833 101.598 142.965 101.666 143.125 101.664C143.303 101.663 143.346 101.614 143.236 101.539C143.136 101.472 142.962 101.267 142.848 101.083C142.675 100.804 142.657 100.8 142.737 101.055ZM228.834 101.436C228.467 101.768 228.167 102.111 228.167 102.199C228.167 102.287 228.369 102.118 228.617 101.824C228.864 101.53 229.296 101.19 229.575 101.068C229.882 100.934 229.968 100.844 229.792 100.84C229.632 100.836 229.201 101.105 228.834 101.436ZM263.764 101.167C263.887 101.631 263.966 101.756 264.07 101.653C264.108 101.614 264.03 101.395 263.896 101.166L263.653 100.75L263.764 101.167ZM267.708 100.948C267.869 100.99 268.131 100.99 268.292 100.948C268.452 100.906 268.321 100.872 268 100.872C267.679 100.872 267.548 100.906 267.708 100.948ZM87.042 101.115C87.202 101.157 87.465 101.157 87.625 101.115C87.785 101.073 87.654 101.039 87.333 101.039C87.013 101.039 86.881 101.073 87.042 101.115ZM102.708 101.115C102.869 101.157 103.131 101.157 103.292 101.115C103.452 101.073 103.321 101.039 103 101.039C102.679 101.039 102.548 101.073 102.708 101.115ZM155.991 101.281C156.102 101.51 156.167 103.401 156.167 106.385C156.167 110.705 156.193 111.145 156.458 111.347C156.706 111.534 156.719 111.532 156.542 111.334C156.385 111.158 156.333 109.911 156.333 106.332C156.333 102.268 156.295 101.516 156.074 101.24C155.824 100.928 155.821 100.929 155.991 101.281ZM162.294 101.118C162.501 101.158 162.801 101.156 162.96 101.115C163.12 101.073 162.95 101.04 162.583 101.042C162.217 101.044 162.086 101.078 162.294 101.118ZM171.503 104.458C171.504 106.403 171.576 108.026 171.667 108.167C171.774 108.332 171.829 107.164 171.831 104.708C171.832 102.346 171.773 101 171.667 101C171.561 101 171.501 102.262 171.503 104.458ZM204.523 101.319C204.74 101.494 204.954 101.601 205 101.555C205.097 101.458 204.506 101 204.283 101C204.199 101 204.307 101.144 204.523 101.319ZM231.751 101.334C231.917 101.518 232.09 101.633 232.134 101.588C232.246 101.476 231.83 101 231.62 101C231.526 101 231.585 101.15 231.751 101.334ZM235.172 101.167C235.172 101.304 235.244 101.529 235.333 101.667C235.477 101.889 235.495 101.889 235.495 101.667C235.495 101.529 235.422 101.304 235.333 101.167C235.19 100.944 235.172 100.944 235.172 101.167ZM238.5 104.48C238.5 106.634 238.564 108.02 238.667 108.083C238.776 108.151 238.833 106.977 238.833 104.686C238.833 102.533 238.769 101.147 238.667 101.083C238.558 101.016 238.5 102.189 238.5 104.48ZM241.741 101.213C241.696 101.331 241.68 102.887 241.705 104.672L241.751 107.917L241.834 104.458C241.915 101.069 241.907 100.781 241.741 101.213ZM254.627 101.118C254.834 101.158 255.134 101.156 255.294 101.115C255.453 101.073 255.283 101.04 254.917 101.042C254.55 101.044 254.42 101.078 254.627 101.118ZM283.917 101.108C284.987 102.049 285.016 102.069 284.906 101.782C284.844 101.62 284.558 101.369 284.271 101.225C283.985 101.08 283.825 101.028 283.917 101.108ZM325.544 101.12C325.797 101.158 326.172 101.157 326.377 101.117C326.582 101.078 326.375 101.046 325.917 101.048C325.458 101.049 325.291 101.081 325.544 101.12ZM327.311 101.431C327.62 101.682 327.973 102.12 328.096 102.402C328.22 102.685 328.323 102.791 328.327 102.638C328.335 102.295 327.592 101.389 327.107 101.149C326.911 101.052 327.003 101.179 327.311 101.431ZM60.524 101.574C60.675 101.762 60.956 102.179 61.149 102.5C61.341 102.821 61.499 102.971 61.499 102.833C61.499 102.696 61.218 102.279 60.875 101.907C60.531 101.535 60.373 101.385 60.524 101.574ZM100.75 101.369C99.802 101.702 99.833 101.529 99.833 106.429C99.833 110.591 99.808 110.998 99.542 111.153C99.381 111.247 99.335 111.325 99.438 111.328C99.931 111.342 99.995 110.81 100.039 106.334L100.083 101.779L100.917 101.486C101.375 101.324 101.638 101.193 101.5 101.193C101.362 101.193 101.025 101.272 100.75 101.369ZM135.005 101.451C135.231 101.607 135.511 101.851 135.625 101.992C135.811 102.221 135.823 102.218 135.736 101.968C135.683 101.813 135.46 101.57 135.242 101.427C134.702 101.073 134.488 101.095 135.005 101.451ZM187.215 101.375C187.368 101.49 187.607 101.733 187.747 101.917L188.001 102.25L187.891 101.917C187.729 101.423 187.492 101.167 187.198 101.167C186.969 101.167 186.971 101.193 187.215 101.375ZM190.531 101.728C190.417 102.042 190.142 102.367 189.894 102.48C189.654 102.59 189.498 102.72 189.547 102.77C189.721 102.943 190.468 102.313 190.672 101.82C190.786 101.546 190.845 101.289 190.804 101.249C190.764 101.208 190.641 101.424 190.531 101.728ZM255.681 101.208C255.72 101.231 256 101.475 256.303 101.75C256.638 102.053 256.812 102.139 256.747 101.968C256.643 101.697 255.969 101.167 255.728 101.167C255.664 101.167 255.643 101.185 255.681 101.208ZM292.333 101.224C292.333 101.25 292.571 101.491 292.86 101.76C293.387 102.249 293.387 102.249 293.069 101.799C292.803 101.423 292.333 101.056 292.333 101.224ZM306.141 101.988C306.382 102.44 306.602 102.787 306.63 102.758C306.714 102.675 305.944 101.167 305.818 101.167C305.755 101.167 305.9 101.536 306.141 101.988ZM120.061 101.773C120.302 102.014 120.5 102.289 120.5 102.384C120.5 102.478 120.546 102.51 120.602 102.454C120.735 102.32 120.029 101.333 119.799 101.333C119.701 101.333 119.819 101.531 120.061 101.773ZM148.875 102.007C149.058 102.377 149.243 102.646 149.285 102.604C149.391 102.498 148.826 101.333 148.669 101.333C148.599 101.333 148.692 101.636 148.875 102.007ZM288.848 101.568C288.467 101.779 288.257 105.979 288.609 106.332C288.656 106.378 288.669 105.386 288.639 104.126L288.583 101.835L289.167 101.593C289.487 101.46 289.637 101.349 289.5 101.348C289.362 101.346 289.069 101.445 288.848 101.568ZM115.684 101.729C115.55 101.891 115.508 103.268 115.542 106.437L115.589 110.917L115.628 106.408C115.656 103.17 115.723 101.844 115.867 101.7C115.977 101.59 116.023 101.5 115.97 101.5C115.917 101.5 115.789 101.603 115.684 101.729ZM159.542 101.61C159.381 101.675 159.342 102.744 159.371 106.306L159.409 110.917L159.496 106.35C159.58 101.98 159.598 101.778 159.917 101.653C160.116 101.576 160.149 101.524 160 101.525C159.862 101.526 159.656 101.564 159.542 101.61ZM130.913 101.875C130.785 102.227 130.742 111.158 130.87 111.031C130.979 110.921 131.144 101.666 131.036 101.667C131.011 101.667 130.955 101.76 130.913 101.875ZM184.917 101.794C184.813 101.871 184.75 103.647 184.75 106.528C184.75 112.448 184.892 112.33 185 106.32C185.046 103.76 185.083 101.668 185.083 101.669C185.083 101.671 185.008 101.727 184.917 101.794ZM280.368 106.292C280.403 110.927 280.461 110.397 280.541 104.708C280.564 103.035 280.527 101.666 280.458 101.666C280.39 101.667 280.349 103.748 280.368 106.292ZM89.41 102.264C89.483 102.44 89.606 102.949 89.682 103.396C89.758 103.843 89.867 104.256 89.925 104.313C90.02 104.407 89.956 103.863 89.726 102.627C89.679 102.376 89.559 102.12 89.459 102.058C89.336 101.982 89.32 102.049 89.41 102.264ZM104.896 102.573C104.995 102.889 105.103 103.119 105.137 103.085C105.243 102.979 104.98 102 104.845 102C104.774 102 104.797 102.258 104.896 102.573ZM37.84 102.85C37.657 103.253 37.511 103.696 37.515 103.833C37.52 103.971 37.631 103.791 37.761 103.434C37.892 103.077 38.085 102.682 38.19 102.555C38.295 102.429 38.334 102.278 38.277 102.221C38.219 102.164 38.023 102.447 37.84 102.85ZM46.666 105.617C46.621 107.469 46.641 108.926 46.712 108.855C46.783 108.784 46.82 107.269 46.795 105.488L46.749 102.25L46.666 105.617ZM187.833 102.875C187.833 102.944 188.171 103 188.583 103C188.996 103 189.333 102.944 189.333 102.875C189.333 102.806 188.996 102.75 188.583 102.75C188.171 102.75 187.833 102.806 187.833 102.875ZM235.464 103.167C235.424 103.442 235.453 103.667 235.529 103.667C235.605 103.667 235.667 103.442 235.667 103.167C235.667 102.892 235.638 102.667 235.602 102.667C235.567 102.667 235.505 102.892 235.464 103.167ZM273.229 104.041C273.209 105.23 273.212 105.236 273.362 104.438C273.446 103.992 273.455 103.448 273.382 103.23C273.29 102.954 273.244 103.201 273.229 104.041ZM213.939 104.689C213.51 105.62 213.187 106.409 213.221 106.443C213.255 106.477 213.636 105.745 214.067 104.817C214.498 103.888 214.821 103.099 214.785 103.062C214.748 103.026 214.368 103.758 213.939 104.689ZM149.193 103.612C149.167 104.135 149.156 104.141 148.125 104.237C146.247 104.411 146.055 104.479 147.653 104.405C149.467 104.322 149.377 104.364 149.288 103.641L149.22 103.083L149.193 103.612ZM152.379 103.833C152.379 104.246 152.411 104.415 152.451 104.208C152.491 104.002 152.491 103.665 152.451 103.458C152.411 103.252 152.379 103.421 152.379 103.833ZM105.214 104.75C105.216 105.208 105.248 105.376 105.286 105.123C105.325 104.869 105.324 104.494 105.284 104.289C105.244 104.084 105.213 104.292 105.214 104.75ZM73.333 104.3C73.333 104.373 73.596 104.402 73.917 104.365C74.237 104.328 74.5 104.268 74.5 104.232C74.5 104.196 74.237 104.167 73.917 104.167C73.596 104.167 73.333 104.227 73.333 104.3ZM269.105 104.299C269.06 104.371 269.281 104.4 269.595 104.364C269.909 104.327 270.167 104.268 270.167 104.232C270.167 104.106 269.186 104.168 269.105 104.299ZM310.804 104.82C310.957 105.179 311.108 105.447 311.14 105.416C311.234 105.322 310.777 104.167 310.646 104.167C310.579 104.167 310.65 104.461 310.804 104.82ZM315.075 104.682C314.929 104.966 314.838 105.227 314.875 105.263C314.911 105.3 315.065 105.068 315.217 104.748C315.56 104.029 315.441 103.974 315.075 104.682ZM70.676 104.515C69.65 104.716 69.424 104.852 70.333 104.721C70.746 104.662 71.571 104.561 72.167 104.497L73.25 104.381L72.333 104.375C71.829 104.372 71.084 104.435 70.676 104.515ZM266.375 104.533C265.894 104.62 265.5 104.766 265.5 104.856C265.5 104.946 265.588 104.965 265.695 104.899C265.802 104.833 266.571 104.687 267.403 104.574C268.536 104.42 268.707 104.369 268.083 104.371C267.625 104.372 266.856 104.445 266.375 104.533ZM144.583 104.745C143.688 105.04 144.203 105.053 145.25 104.762C145.749 104.623 145.916 104.529 145.667 104.528C145.438 104.527 144.95 104.624 144.583 104.745ZM312.657 105.274C312.474 105.699 312.362 106.084 312.408 106.13C312.453 106.176 312.575 105.996 312.678 105.731C312.781 105.467 312.931 105.081 313.012 104.875C313.291 104.162 312.987 104.503 312.657 105.274ZM264.5 105.158C264.179 105.329 263.729 105.676 263.5 105.929C263.155 106.311 263.223 106.285 263.899 105.778C264.348 105.442 264.812 105.167 264.931 105.167C265.05 105.167 265.193 105.092 265.25 105C265.401 104.756 265.16 104.807 264.5 105.158ZM67.834 105.769C67.467 106.101 67.167 106.495 67.167 106.644C67.168 106.811 67.289 106.718 67.481 106.403C67.653 106.121 68.009 105.729 68.272 105.533C68.535 105.338 68.694 105.175 68.625 105.172C68.557 105.169 68.201 105.438 67.834 105.769ZM142.444 105.998C141.719 106.86 141.479 108.225 141.856 109.35C142.066 109.976 142.819 111.07 142.95 110.939C142.996 110.893 142.84 110.647 142.604 110.392C141.656 109.369 141.666 107.133 142.624 106.127C142.863 105.876 143.018 105.629 142.967 105.578C142.916 105.527 142.681 105.716 142.444 105.998ZM149.159 106.213C149.24 106.899 149.243 106.903 149.3 106.354C149.332 106.044 149.294 105.727 149.216 105.65C149.139 105.572 149.113 105.825 149.159 106.213ZM120.875 106.417C120.877 106.783 120.911 106.914 120.951 106.706C120.991 106.499 120.99 106.199 120.948 106.04C120.906 105.88 120.874 106.05 120.875 106.417ZM328.39 107.083C328.391 107.817 328.42 108.096 328.456 107.704C328.491 107.312 328.49 106.712 328.454 106.371C328.419 106.029 328.39 106.35 328.39 107.083ZM331.539 106.333C331.539 106.654 331.573 106.785 331.615 106.625C331.657 106.465 331.657 106.202 331.615 106.042C331.573 105.881 331.539 106.013 331.539 106.333ZM145.387 106.375C145.202 106.581 144.994 106.862 144.927 107C144.86 107.138 144.953 107.067 145.135 106.844C145.316 106.621 145.6 106.339 145.764 106.219C145.929 106.098 145.987 106 145.894 106C145.801 106 145.573 106.169 145.387 106.375ZM266.274 106.409C266.032 106.633 265.839 106.952 265.846 107.117C265.857 107.349 265.88 107.36 265.951 107.167C266.001 107.029 266.234 106.71 266.469 106.458C266.999 105.89 266.87 105.857 266.274 106.409ZM285.381 106.917C285.382 107.375 285.415 107.543 285.453 107.289C285.491 107.036 285.49 106.661 285.451 106.456C285.411 106.251 285.38 106.458 285.381 106.917ZM89.667 108.625C89.667 110.999 89.731 111.5 90.038 111.5C90.138 111.5 90.125 111.401 90.006 111.258C89.865 111.088 89.82 110.342 89.854 108.764C89.881 107.526 89.849 106.461 89.785 106.396C89.72 106.331 89.667 107.334 89.667 108.625ZM312.086 106.707C312.019 106.959 311.904 107.127 311.831 107.082C311.758 107.037 311.739 107.158 311.79 107.351C311.872 107.666 311.906 107.645 312.112 107.156C312.238 106.855 312.312 106.528 312.275 106.429C312.238 106.331 312.153 106.456 312.086 106.707ZM288.523 108.333C288.496 109.388 288.448 110.391 288.415 110.563C288.378 110.764 288.414 110.819 288.517 110.716C288.608 110.625 288.655 109.667 288.625 108.486L288.572 106.417L288.523 108.333ZM228.178 106.75C228.178 106.842 228.286 107.104 228.417 107.333C228.548 107.563 228.655 107.675 228.655 107.583C228.655 107.492 228.548 107.229 228.417 107C228.286 106.771 228.178 106.658 228.178 106.75ZM331.47 108.934C331.441 109.814 331.472 110.62 331.539 110.726C331.606 110.831 331.663 110.11 331.664 109.125C331.667 106.901 331.541 106.777 331.47 108.934ZM53.004 108.095C53.255 108.753 53.519 109.203 53.605 109.118C53.683 109.039 53.02 107.667 52.904 107.667C52.87 107.667 52.915 107.859 53.004 108.095ZM64.342 108.484C64.15 108.859 64.026 109.167 64.066 109.167C64.207 109.167 64.871 107.982 64.781 107.892C64.731 107.842 64.533 108.108 64.342 108.484ZM92.872 108.333C92.872 108.654 92.906 108.785 92.948 108.625C92.99 108.465 92.99 108.202 92.948 108.042C92.906 107.881 92.872 108.013 92.872 108.333ZM149.205 108.333C149.205 108.654 149.24 108.785 149.282 108.625C149.323 108.465 149.323 108.202 149.282 108.042C149.24 107.881 149.205 108.013 149.205 108.333ZM228.833 107.885C228.833 107.914 229.077 108.158 229.375 108.427L229.917 108.917L229.427 108.375C228.971 107.87 228.833 107.757 228.833 107.885ZM77.379 108.667C77.379 109.079 77.411 109.248 77.451 109.042C77.491 108.835 77.491 108.498 77.451 108.292C77.411 108.085 77.379 108.254 77.379 108.667ZM265.86 108.504C265.956 108.78 266.19 109.09 266.38 109.191C266.717 109.372 266.717 109.366 266.362 108.915C266.163 108.662 266 108.353 266 108.228C266 108.102 265.929 108 265.842 108C265.746 108 265.753 108.199 265.86 108.504ZM273.214 108.75C273.216 109.208 273.248 109.376 273.286 109.123C273.325 108.869 273.324 108.494 273.284 108.289C273.244 108.084 273.213 108.292 273.214 108.75ZM207.909 108.417C207.98 108.6 208.076 108.881 208.122 109.042C208.168 109.202 208.274 109.333 208.357 109.333C208.44 109.333 208.385 109.09 208.233 108.792C207.909 108.154 207.726 107.942 207.909 108.417ZM303.189 108.97C303.448 109.745 303.269 110.848 302.825 111.207C302.626 111.368 302.541 111.5 302.636 111.5C303.34 111.5 303.797 109.452 303.252 108.74C303.026 108.445 303.021 108.465 303.189 108.97ZM38.078 109.125C38.223 109.423 38.377 109.667 38.421 109.667C38.587 109.667 38.48 109.401 38.153 109L37.813 108.583L38.078 109.125ZM61.014 109.23L60.612 109.75L61.089 109.297C61.351 109.047 61.532 108.814 61.491 108.777C61.45 108.74 61.236 108.944 61.014 109.23ZM70.254 108.866C70.34 109.091 70.993 109.57 71.078 109.47C71.102 109.441 70.908 109.242 70.645 109.029C70.383 108.816 70.206 108.743 70.254 108.866ZM54.164 109.914C54.474 110.234 54.764 110.458 54.81 110.412C54.919 110.303 53.985 109.333 53.769 109.333C53.677 109.333 53.855 109.595 54.164 109.914ZM63.412 109.792L63.119 110.25L63.559 109.846C64.036 109.409 64.079 109.333 63.853 109.333C63.771 109.333 63.573 109.54 63.412 109.792ZM92.881 110.083C92.882 110.542 92.915 110.709 92.953 110.456C92.991 110.203 92.99 109.828 92.951 109.623C92.911 109.418 92.88 109.625 92.881 110.083ZM225.974 109.734C226.382 110.275 227.304 111.003 227.574 110.995C227.671 110.992 227.6 110.908 227.417 110.807C227.233 110.706 226.752 110.315 226.347 109.937C225.807 109.433 225.708 109.379 225.974 109.734ZM172.11 110.189C172.279 110.477 172.604 110.828 172.833 110.971C173.185 111.191 173.166 111.141 172.708 110.649C172.41 110.329 172.167 109.977 172.167 109.867C172.167 109.757 172.085 109.667 171.985 109.667C171.88 109.667 171.933 109.888 172.11 110.189ZM192.833 109.812C192.833 109.883 193.021 110.118 193.25 110.333C193.479 110.549 193.667 110.678 193.667 110.62C193.667 110.562 193.479 110.328 193.25 110.098C193.021 109.869 192.833 109.74 192.833 109.812ZM273.261 110.125C273.316 110.377 273.389 110.675 273.424 110.787C273.458 110.899 273.358 111.066 273.201 111.157C273.045 111.248 273.001 111.325 273.105 111.328C273.505 111.339 273.661 110.911 273.487 110.281C273.291 109.569 273.112 109.446 273.261 110.125ZM39 110.417C39.311 110.737 39.64 111 39.732 111C39.824 111 39.612 110.737 39.262 110.417C38.911 110.096 38.582 109.833 38.53 109.833C38.477 109.833 38.689 110.096 39 110.417ZM67.308 110.085C67.48 110.443 67.924 110.871 68.333 111.072C68.471 111.14 68.42 111.058 68.22 110.889C68.021 110.721 67.698 110.396 67.503 110.167C67.239 109.857 67.189 109.836 67.308 110.085ZM263.142 110.085C263.313 110.443 263.758 110.871 264.167 111.072C264.304 111.14 264.253 111.058 264.054 110.889C263.854 110.721 263.531 110.396 263.336 110.167C263.072 109.857 263.022 109.836 263.142 110.085ZM239.2 110.363C239.333 110.562 239.623 110.839 239.846 110.978C240.154 111.171 240.114 111.085 239.676 110.615C239.029 109.922 238.842 109.823 239.2 110.363ZM45.75 110.603C45.2 110.811 44.843 110.985 44.957 110.99C45.07 110.996 45.535 110.859 45.99 110.686C46.743 110.4 46.823 110.396 46.889 110.644C46.954 110.888 46.963 110.887 46.981 110.635C47.01 110.201 46.83 110.196 45.75 110.603ZM62.477 110.509C62.104 110.834 62.103 110.843 62.449 110.675C62.65 110.578 62.861 110.424 62.917 110.332C63.081 110.067 62.901 110.14 62.477 110.509ZM201.083 110.593C200.533 110.806 200.196 110.981 200.333 110.981C200.471 110.982 201.033 110.804 201.583 110.586C202.133 110.369 202.471 110.194 202.333 110.198C202.196 110.202 201.633 110.38 201.083 110.593ZM49.891 110.577C49.954 110.741 49.919 110.98 49.813 111.108C49.658 111.294 49.674 111.32 49.893 111.236C50.209 111.115 50.259 110.577 49.972 110.399C49.838 110.316 49.813 110.372 49.891 110.577ZM148.5 110.685C148.087 110.848 147.846 110.986 147.964 110.991C148.081 110.996 148.433 110.893 148.746 110.763C149.169 110.586 149.334 110.575 149.394 110.721C149.454 110.869 149.477 110.868 149.487 110.718C149.509 110.383 149.281 110.376 148.5 110.685ZM178.333 110.624C177.921 110.77 177.665 110.916 177.764 110.949C177.864 110.982 178.276 110.863 178.681 110.683C179.566 110.291 179.372 110.258 178.333 110.624ZM245.79 110.432C245.736 110.486 245.405 110.633 245.054 110.758C244.703 110.883 244.567 110.983 244.75 110.98C245.165 110.974 246.516 110.363 246.153 110.346C246.008 110.339 245.844 110.378 245.79 110.432ZM270 110.463C269.214 110.73 268.963 110.852 269.042 110.931C269.091 110.98 269.397 110.908 269.722 110.772C270.161 110.589 270.335 110.576 270.394 110.721C270.454 110.869 270.477 110.868 270.487 110.718C270.504 110.459 270.311 110.358 270 110.463ZM55.24 110.755C55.418 110.89 55.639 111 55.73 111C55.822 111 55.751 110.89 55.574 110.755C55.396 110.621 55.175 110.511 55.083 110.511C54.992 110.511 55.062 110.621 55.24 110.755ZM73.417 110.756C72.744 111.064 73.146 111.065 73.856 110.757C74.164 110.623 74.304 110.516 74.167 110.52C74.029 110.524 73.692 110.63 73.417 110.756ZM74.513 110.676C74.506 110.819 74.617 111.082 74.759 111.26C75.014 111.578 75.016 111.578 74.865 111.25C74.781 111.067 74.67 110.804 74.619 110.667C74.539 110.451 74.525 110.452 74.513 110.676ZM208.833 110.62C208.833 110.717 208.988 110.973 209.177 111.19L209.52 111.583L209.227 111.083C208.842 110.425 208.833 110.415 208.833 110.62ZM233.917 110.756C233.642 110.882 233.529 110.985 233.667 110.985C233.804 110.985 234.142 110.882 234.417 110.756C234.692 110.63 234.804 110.527 234.667 110.527C234.529 110.527 234.192 110.63 233.917 110.756Z" fill="#241C5C"/>
<path fill-rule="evenodd" clip-rule="evenodd" d="M373.234 8.50001C373.234 9.92101 373.259 10.502 373.291 9.79201C373.322 9.08101 373.322 7.91901 373.291 7.20801C373.259 6.49801 373.234 7.07901 373.234 8.50001Z" fill="#BC9830"/>
</svg>
