<svg id="Layer_1" data-name="Layer 1" xmlns="http://www.w3.org/2000/svg" viewBox="0 0 1556.7 1556.7"><defs><style>.cls-1{fill:#fff;}.cls-2{fill:#fbd013;}</style></defs><title>Icon</title><path class="cls-1" d="M1416.31,799.21a21,21,0,0,1-14.69-6C1188.29,586.43,965.88,487.11,740.55,498.07,560.6,506.82,411.68,585.9,318.44,650.69,216.67,721.41,157.08,791.06,156.49,791.76a21.1,21.1,0,0,1-32.2-27.28c2.52-3,63-73.81,168.86-147.6,62.19-43.35,127.21-78.66,193.24-105,82.84-33,167.52-51.82,251.68-56,237.6-11.69,470.74,91.61,692.93,307a21.1,21.1,0,0,1-14.69,36.24Z"/><path class="cls-1" d="M782.4,1101.65c-225.08,0-445.81-103.45-656.7-307.91a21.1,21.1,0,0,1,29.38-30.3c213.33,206.83,435.75,306.15,661.07,295.19,180-8.75,328.87-87.82,422.11-152.62,101.77-70.72,161.37-140.37,162-141.07a21.1,21.1,0,0,1,32.19,27.28c-2.52,3-63,73.81-168.86,147.6-62.19,43.35-127.21,78.67-193.24,105-82.84,33-167.52,51.83-251.67,56Q800.5,1101.65,782.4,1101.65Z"/><path class="cls-1" d="M778.35,1081.05a301.74,301.74,0,1,1,117.83-23.79A300.83,300.83,0,0,1,778.35,1081.05Zm0-563.2c-143.64,0-260.5,116.86-260.5,260.5s116.86,260.5,260.5,260.5,260.5-116.86,260.5-260.5S922,517.85,778.35,517.85Z"/><path class="cls-2" d="M782.43,616.6a163.38,163.38,0,0,0-40.71,2.77,110.43,110.43,0,0,1-130.89,150l0,.41A162.64,162.64,0,1,0,782.43,616.6Z"/></svg>