<svg id="Layer_1" data-name="Layer 1" xmlns="http://www.w3.org/2000/svg" viewBox="0 0 1556.7 1556.7"><defs><style>.cls-1{fill:#fff;}</style></defs><title>Icon</title><path class="cls-1" d="M1320.64,682H262.2a21.1,21.1,0,1,1,0-42.2H1320.64a21.1,21.1,0,0,1,0,42.2Z"/><path class="cls-1" d="M787.88,1172.57a21.09,21.09,0,0,1-19-11.78L523.3,661.64,639.79,379.13a21.1,21.1,0,1,1,39,16.09L569.58,660.11l237.22,482a21.11,21.11,0,0,1-18.92,30.42Z"/><path class="cls-1" d="M787.85,1172.57a21.11,21.11,0,0,1-18.92-30.42l237.22-482L896.92,395.22a21.1,21.1,0,1,1,39-16.09l116.49,282.51L806.8,1160.79A21.09,21.09,0,0,1,787.85,1172.57Z"/><path class="cls-1" d="M800.05,1211.29,221.73,676.37a21.1,21.1,0,1,1,28.66-31l548.52,507.36L1305.72,646a21.1,21.1,0,0,1,29.84,29.84Z"/><path class="cls-1" d="M1320.66,682a21.09,21.09,0,0,1-17.68-9.55L1116.65,387.61H464.18L253,673.41a21.1,21.1,0,1,1-33.94-25.07l223.8-302.92h696.58L1338.3,649.33A21.11,21.11,0,0,1,1320.66,682Z"/></svg>