<svg id="Layer_1" data-name="Layer 1" xmlns="http://www.w3.org/2000/svg" viewBox="0 0 1556.7 1556.7"><defs><style>.cls-1{fill:#fff;}.cls-2{fill:#fbd013;}</style></defs><title>Icon</title><path class="cls-1" d="M759.35,1001.68a219.78,219.78,0,1,1,75.11-426.36A21.1,21.1,0,1,1,820,615a176.91,176.91,0,0,0-60.68-10.64c-97.91,0-177.57,79.66-177.57,177.58s79.66,177.57,177.57,177.57,177.57-79.66,177.57-177.57a179.32,179.32,0,0,0-1.72-24.81A21.1,21.1,0,1,1,977,751.22a222.25,222.25,0,0,1,2.13,30.69,219.77,219.77,0,0,1-219.77,219.77Z"/><path class="cls-1" d="M759.35,1189a407.06,407.06,0,1,1,218.3-750.68A21.1,21.1,0,0,1,955,473.88a363.61,363.61,0,0,0-195.64-56.83c-201.18,0-364.86,163.67-364.86,364.86s163.68,364.85,364.86,364.85S1124.2,983.09,1124.2,781.91a360.93,360.93,0,0,0-39.59-165.48,21.1,21.1,0,0,1,37.59-19.17A406.94,406.94,0,0,1,759.35,1189Z"/><path class="cls-1" d="M759.35,1353.9A572,572,0,1,1,940.28,239.13a567.51,567.51,0,0,1,58.29,23.06c34.72,16,13.51,52.54-18.91,37.68a526.68,526.68,0,0,0-220.31-47.75c-292.13,0-529.8,237.66-529.8,529.79s237.67,529.79,529.8,529.79S1289.14,1074,1289.14,781.91a528.7,528.7,0,0,0-52.46-230.11c-4.38-9.08.71-26.26,10.27-30.15,10-4.09,24.85,5.61,30.13,16.83A571.82,571.82,0,0,1,759.35,1353.9Z"/><path class="cls-2" d="M800.71,792.86a21.22,21.22,0,0,1-15-36.22L1070.3,472.06a21.21,21.21,0,0,1,30,30L815.71,786.65A21.15,21.15,0,0,1,800.71,792.86Z"/><path class="cls-2" d="M1082.12,503.79c-.61,0-1.23,0-1.85-.08a21.22,21.22,0,0,1-19.31-23l12.21-141.21a21.21,21.21,0,0,1,6.14-13.17L1196.66,209a21.21,21.21,0,0,1,35.31,8.87l31.64,104.83A21.21,21.21,0,1,1,1223,335l-21.4-70.89-86.81,86.81-11.54,133.5A21.23,21.23,0,0,1,1082.12,503.79Z"/><path class="cls-2" d="M1084.85,511.68a21.22,21.22,0,0,1-1.81-42.36l138.21-11.95,86.82-86.81-70.9-21.4a21.21,21.21,0,1,1,12.26-40.62l104.83,31.64a21.21,21.21,0,0,1,8.87,35.31L1245.79,492.84a21.2,21.2,0,0,1-13.18,6.14L1086.7,511.6C1086.08,511.65,1085.46,511.68,1084.85,511.68Z"/><circle class="cls-2" cx="789.29" cy="788.04" r="53.54"/></svg>