<svg width="207" height="101" viewBox="0 0 207 101" fill="none" xmlns="http://www.w3.org/2000/svg">
<path d="M2.82 35.696V68H9.828V35.696H2.82ZM28.3734 50.192C32.2614 50.192 34.0374 53.312 34.0374 56.96V68H40.8534V56.144C40.8534 49.184 36.6774 43.568 28.3734 43.568C20.0694 43.568 15.9894 49.232 15.9894 56.144V68H22.8054V56.96C22.8054 53.312 24.5334 50.192 28.3734 50.192ZM49.4568 64.064C50.5608 67.136 52.7688 68.672 55.6488 68.672C58.5768 68.672 60.6408 67.136 61.7928 64.064L69.1368 44.24H61.8888L55.6968 61.952L49.4568 44.24H42.2088L49.4568 64.064ZM55.6488 62.144H55.6968C55.6968 62.144 55.6968 62.144 55.6488 62.144ZM82.6088 68.624C87.6488 68.624 91.5848 66.176 93.6488 61.904L88.4168 59.264C87.3128 61.472 85.1528 62.72 82.5608 62.72C79.1528 62.72 76.7048 60.608 76.2248 57.44H93.8888V55.424C93.8888 48.944 89.5208 43.376 81.9848 43.376C74.6408 43.376 69.6488 49.04 69.6488 55.904C69.6488 63.488 75.2168 68.624 82.6088 68.624ZM76.5128 53.648C76.9928 51.248 78.9608 49.328 81.9368 49.328C84.8168 49.328 86.8328 51.2 87.1208 53.648H76.5128ZM107.192 68.672C112.616 68.672 117.272 65.6 117.272 60.8C117.272 51.872 104.216 54.944 104.216 51.104C104.216 49.856 105.464 49.04 107.144 49.04C109.064 49.04 110.792 49.856 111.56 51.584L116.6 48.752C115.16 46.016 112.088 43.616 107 43.616C101.144 43.616 97.4 46.976 97.4 51.248C97.4 60.416 110.456 57.104 110.456 60.944C110.456 62.336 109.064 63.2 106.856 63.2C104.456 63.2 102.872 62.384 101.864 60.464L96.824 63.296C98.792 66.848 102.248 68.672 107.192 68.672ZM133.214 68.672C134.894 68.672 136.958 68.288 138.158 67.52V61.424C137.006 62.144 135.23 62.576 133.838 62.576C131.342 62.576 129.758 61.04 129.758 58.4V50H138.158V44.24H129.758V38.192H122.942V44.24H118.574V50H122.942V58.592C122.942 64.544 126.35 68.672 133.214 68.672ZM153.482 68.624C160.778 68.624 166.394 62.96 166.394 56.048C166.394 49.232 160.826 43.52 153.482 43.52C146.234 43.52 140.618 49.184 140.618 56.048C140.618 62.96 146.186 68.624 153.482 68.624ZM153.482 62.24C149.978 62.24 147.434 59.456 147.434 56.096C147.434 52.736 149.978 49.952 153.482 49.952C156.986 49.952 159.578 52.736 159.578 56.096C159.578 59.456 156.986 62.24 153.482 62.24ZM176.743 68V54.608C176.743 51.776 178.375 50.048 181.063 50.048C182.311 50.048 183.703 50.384 184.855 51.056V44.432C183.655 43.904 181.975 43.616 180.439 43.616C173.383 43.616 169.927 48.272 169.927 54.368V68H176.743ZM196.895 68.672C202.319 68.672 206.975 65.6 206.975 60.8C206.975 51.872 193.919 54.944 193.919 51.104C193.919 49.856 195.167 49.04 196.847 49.04C198.767 49.04 200.495 49.856 201.263 51.584L206.303 48.752C204.863 46.016 201.791 43.616 196.703 43.616C190.847 43.616 187.103 46.976 187.103 51.248C187.103 60.416 200.159 57.104 200.159 60.944C200.159 62.336 198.767 63.2 196.559 63.2C194.159 63.2 192.575 62.384 191.567 60.464L186.527 63.296C188.495 66.848 191.951 68.672 196.895 68.672Z" fill="#FDFACE"/>
<path d="M0.82 33.696V66H7.828V33.696H0.82ZM26.3734 48.192C30.2614 48.192 32.0374 51.312 32.0374 54.96V66H38.8534V54.144C38.8534 47.184 34.6774 41.568 26.3734 41.568C18.0694 41.568 13.9894 47.232 13.9894 54.144V66H20.8054V54.96C20.8054 51.312 22.5334 48.192 26.3734 48.192ZM47.4568 62.064C48.5608 65.136 50.7688 66.672 53.6488 66.672C56.5768 66.672 58.6408 65.136 59.7928 62.064L67.1368 42.24H59.8888L53.6968 59.952L47.4568 42.24H40.2088L47.4568 62.064ZM53.6488 60.144H53.6968C53.6968 60.144 53.6968 60.144 53.6488 60.144ZM80.6088 66.624C85.6488 66.624 89.5848 64.176 91.6488 59.904L86.4168 57.264C85.3128 59.472 83.1528 60.72 80.5608 60.72C77.1528 60.72 74.7048 58.608 74.2248 55.44H91.8888V53.424C91.8888 46.944 87.5208 41.376 79.9848 41.376C72.6408 41.376 67.6488 47.04 67.6488 53.904C67.6488 61.488 73.2168 66.624 80.6088 66.624ZM74.5128 51.648C74.9928 49.248 76.9608 47.328 79.9368 47.328C82.8168 47.328 84.8328 49.2 85.1208 51.648H74.5128ZM105.192 66.672C110.616 66.672 115.272 63.6 115.272 58.8C115.272 49.872 102.216 52.944 102.216 49.104C102.216 47.856 103.464 47.04 105.144 47.04C107.064 47.04 108.792 47.856 109.56 49.584L114.6 46.752C113.16 44.016 110.088 41.616 105 41.616C99.144 41.616 95.4 44.976 95.4 49.248C95.4 58.416 108.456 55.104 108.456 58.944C108.456 60.336 107.064 61.2 104.856 61.2C102.456 61.2 100.872 60.384 99.864 58.464L94.824 61.296C96.792 64.848 100.248 66.672 105.192 66.672ZM131.214 66.672C132.894 66.672 134.958 66.288 136.158 65.52V59.424C135.006 60.144 133.23 60.576 131.838 60.576C129.342 60.576 127.758 59.04 127.758 56.4V48H136.158V42.24H127.758V36.192H120.942V42.24H116.574V48H120.942V56.592C120.942 62.544 124.35 66.672 131.214 66.672ZM151.482 66.624C158.778 66.624 164.394 60.96 164.394 54.048C164.394 47.232 158.826 41.52 151.482 41.52C144.234 41.52 138.618 47.184 138.618 54.048C138.618 60.96 144.186 66.624 151.482 66.624ZM151.482 60.24C147.978 60.24 145.434 57.456 145.434 54.096C145.434 50.736 147.978 47.952 151.482 47.952C154.986 47.952 157.578 50.736 157.578 54.096C157.578 57.456 154.986 60.24 151.482 60.24ZM174.743 66V52.608C174.743 49.776 176.375 48.048 179.063 48.048C180.311 48.048 181.703 48.384 182.855 49.056V42.432C181.655 41.904 179.975 41.616 178.439 41.616C171.383 41.616 167.927 46.272 167.927 52.368V66H174.743ZM194.895 66.672C200.319 66.672 204.975 63.6 204.975 58.8C204.975 49.872 191.919 52.944 191.919 49.104C191.919 47.856 193.167 47.04 194.847 47.04C196.767 47.04 198.495 47.856 199.263 49.584L204.303 46.752C202.863 44.016 199.791 41.616 194.703 41.616C188.847 41.616 185.103 44.976 185.103 49.248C185.103 58.416 198.159 55.104 198.159 58.944C198.159 60.336 196.767 61.2 194.559 61.2C192.159 61.2 190.575 60.384 189.567 58.464L184.527 61.296C186.495 64.848 189.951 66.672 194.895 66.672Z" fill="#EAD110"/>
</svg>
