<svg width="128" height="100" viewBox="0 0 128 100" fill="none" xmlns="http://www.w3.org/2000/svg">
<path d="M15.188 67.624C22.052 67.624 27.524 63.4 27.524 57.592C27.524 50.248 21.188 48.52 16.388 47.704C12.884 47.08 10.196 46.408 10.196 43.816C10.196 41.848 12.02 40.6 14.66 40.6C17.924 40.6 20.036 42.04 21.092 44.104L26.948 41.176C24.884 36.568 20.276 34.12 14.948 34.12C8.276 34.12 3.188 38.44 3.188 44.104C3.188 51.4 9.764 53.128 14.612 53.944C17.972 54.52 20.516 54.952 20.516 57.64C20.516 59.944 18.212 61.192 15.188 61.192C11.828 61.192 9.572 59.992 8.516 57.64L2.66 60.568C4.724 65.176 9.38 67.624 15.188 67.624ZM43.3431 67.624C48.3831 67.624 52.3191 65.176 54.3831 60.904L49.1511 58.264C48.0471 60.472 45.8871 61.72 43.2951 61.72C39.8871 61.72 37.4391 59.608 36.9591 56.44H54.6231V54.424C54.6231 47.944 50.2551 42.376 42.7191 42.376C35.3751 42.376 30.3831 48.04 30.3831 54.904C30.3831 62.488 35.9511 67.624 43.3431 67.624ZM37.2471 52.648C37.7271 50.248 39.6951 48.328 42.6711 48.328C45.5511 48.328 47.5671 50.2 47.8551 52.648H37.2471ZM59.5744 32.296V67H66.3904V32.296H59.5744ZM73.0119 32.296V67H79.8279V32.296H73.0119ZM97.2494 67.624C102.289 67.624 106.225 65.176 108.289 60.904L103.057 58.264C101.953 60.472 99.7934 61.72 97.2014 61.72C93.7934 61.72 91.3454 59.608 90.8654 56.44H108.529V54.424C108.529 47.944 104.161 42.376 96.6254 42.376C89.2814 42.376 84.2894 48.04 84.2894 54.904C84.2894 62.488 89.8574 67.624 97.2494 67.624ZM91.1534 52.648C91.6334 50.248 93.6014 48.328 96.5774 48.328C99.4574 48.328 101.473 50.2 101.761 52.648H91.1534ZM119.337 67V53.608C119.337 50.776 120.969 49.048 123.657 49.048C124.905 49.048 126.297 49.384 127.449 50.056V43.432C126.249 42.904 124.569 42.616 123.033 42.616C115.977 42.616 112.521 47.272 112.521 53.368V67H119.337Z" fill="#FFEAD8"/>
<path d="M13.188 65.624C20.052 65.624 25.524 61.4 25.524 55.592C25.524 48.248 19.188 46.52 14.388 45.704C10.884 45.08 8.196 44.408 8.196 41.816C8.196 39.848 10.02 38.6 12.66 38.6C15.924 38.6 18.036 40.04 19.092 42.104L24.948 39.176C22.884 34.568 18.276 32.12 12.948 32.12C6.276 32.12 1.188 36.44 1.188 42.104C1.188 49.4 7.764 51.128 12.612 51.944C15.972 52.52 18.516 52.952 18.516 55.64C18.516 57.944 16.212 59.192 13.188 59.192C9.828 59.192 7.572 57.992 6.516 55.64L0.66 58.568C2.724 63.176 7.38 65.624 13.188 65.624ZM41.3431 65.624C46.3831 65.624 50.3191 63.176 52.3831 58.904L47.1511 56.264C46.0471 58.472 43.8871 59.72 41.2951 59.72C37.8871 59.72 35.4391 57.608 34.9591 54.44H52.6231V52.424C52.6231 45.944 48.2551 40.376 40.7191 40.376C33.3751 40.376 28.3831 46.04 28.3831 52.904C28.3831 60.488 33.9511 65.624 41.3431 65.624ZM35.2471 50.648C35.7271 48.248 37.6951 46.328 40.6711 46.328C43.5511 46.328 45.5671 48.2 45.8551 50.648H35.2471ZM57.5744 30.296V65H64.3904V30.296H57.5744ZM71.0119 30.296V65H77.8279V30.296H71.0119ZM95.2494 65.624C100.289 65.624 104.225 63.176 106.289 58.904L101.057 56.264C99.9534 58.472 97.7934 59.72 95.2014 59.72C91.7934 59.72 89.3454 57.608 88.8654 54.44H106.529V52.424C106.529 45.944 102.161 40.376 94.6254 40.376C87.2814 40.376 82.2894 46.04 82.2894 52.904C82.2894 60.488 87.8574 65.624 95.2494 65.624ZM89.1534 50.648C89.6334 48.248 91.6014 46.328 94.5774 46.328C97.4574 46.328 99.4734 48.2 99.7614 50.648H89.1534ZM117.337 65V51.608C117.337 48.776 118.969 47.048 121.657 47.048C122.905 47.048 124.297 47.384 125.449 48.056V41.432C124.249 40.904 122.569 40.616 121.033 40.616C113.977 40.616 110.521 45.272 110.521 51.368V65H117.337Z" fill="#FE564B"/>
</svg>
