<svg width="21" height="21" viewBox="0 0 21 21" fill="none" xmlns="http://www.w3.org/2000/svg">
<g clip-path="url(#clip0_841_4042)">
<path fill-rule="evenodd" clip-rule="evenodd" d="M21 10.5C21 16.0228 16.5228 20.5 11 20.5C5.47715 20.5 1 16.0228 1 10.5C1 4.97715 5.47715 0.5 11 0.5C16.5228 0.5 21 4.97715 21 10.5ZM11.3584 7.88244C10.3857 8.287 8.44178 9.12433 5.52658 10.3944C5.05319 10.5827 4.80521 10.7668 4.78264 10.9469C4.74449 11.2512 5.12559 11.3711 5.64456 11.5343C5.71515 11.5565 5.7883 11.5795 5.86328 11.6038C6.37386 11.7698 7.06069 11.964 7.41774 11.9717C7.74162 11.9787 8.10311 11.8452 8.5022 11.5711C11.226 9.7325 12.632 8.80318 12.7203 8.78314C12.7825 8.76901 12.8688 8.75123 12.9273 8.80321C12.9858 8.85518 12.98 8.9536 12.9738 8.98C12.9361 9.14095 11.4401 10.5318 10.6659 11.2515C10.4246 11.4759 10.2534 11.635 10.2184 11.6714C10.14 11.7528 10.0601 11.8298 9.98332 11.9038C9.50897 12.3611 9.15326 12.704 10.003 13.264C10.4114 13.5331 10.7381 13.7556 11.0641 13.9776C11.4201 14.2201 11.7752 14.4619 12.2347 14.7631C12.3517 14.8398 12.4635 14.9195 12.5724 14.9971C12.9867 15.2925 13.359 15.5578 13.8188 15.5155C14.086 15.4909 14.3621 15.2397 14.5022 14.4903C14.8335 12.7193 15.4847 8.88205 15.6352 7.30081C15.6484 7.16228 15.6318 6.98498 15.6185 6.90715C15.6051 6.82932 15.5773 6.71842 15.4761 6.63633C15.3563 6.53911 15.1714 6.51861 15.0886 6.52007C14.7125 6.5267 14.1355 6.72735 11.3584 7.88244Z" fill="white"/>
</g>
<defs>
<clipPath id="clip0_841_4042">
<rect width="20" height="20" fill="white" transform="translate(1 0.5)"/>
</clipPath>
</defs>
</svg>
