<svg width="566" height="192" viewBox="0 0 566 192" fill="none" xmlns="http://www.w3.org/2000/svg">
<path d="M95.7236 16.2793L137.65 89.6494C139.361 92.6477 143.682 92.6477 145.396 89.6494L165.518 54.4346C166.007 53.5764 166.007 52.5256 165.518 51.6674L140.277 7.49894C138.577 4.52541 140.725 0.825684 144.15 0.825684H224.579C225.434 0.825684 225.971 1.74992 225.547 2.49537L119.487 188.098C116.703 192.967 109.684 192.967 106.9 188.098L0.83999 2.49537C0.416378 1.75267 0.952762 0.825684 1.80824 0.825684H69.0911C80.1022 0.825684 90.2634 6.72324 95.7236 16.2793Z" fill="url(#paint0_linear)"/>
<path d="M435.832 16.2793L477.758 89.6494C479.472 92.6477 483.791 92.6477 485.504 89.6494L505.626 54.4346C506.116 53.5764 506.116 52.5256 505.626 51.6674L480.385 7.49894C478.685 4.52541 480.834 0.825684 484.258 0.825684H564.687C565.542 0.825684 566.081 1.74992 565.655 2.49537L459.595 188.098C456.812 192.967 449.792 192.967 447.008 188.098L340.948 2.49537C340.522 1.75267 341.061 0.825684 341.916 0.825684H409.199C420.208 0.825684 430.369 6.72324 435.832 16.2793Z" fill="url(#paint1_linear)"/>
<path d="M368.786 80.7176L334.759 100.16C337.757 98.4488 337.757 94.1247 334.759 92.4137L226.433 30.5114C221.688 27.7991 215.677 28.7096 212.011 32.745C229.491 13.157 254.93 0.822754 283.252 0.822754C325.764 0.822754 361.79 28.6189 374.144 67.0245C374.152 67.0438 374.155 67.0685 374.163 67.0878C375.811 72.3197 373.55 77.9972 368.786 80.7176Z" fill="url(#paint2_linear)"/>
<path d="M261.502 142.023L227.736 161.317C223.181 163.922 222.802 170.367 227.043 173.459C203.25 156.101 187.788 127.997 187.788 96.2869C187.788 71.8879 196.942 49.6263 212.008 32.7478C215.675 28.7125 221.685 27.802 226.43 30.5142L261.499 50.556C258.525 48.8561 254.823 51.0016 254.823 54.4263V138.15C254.826 141.575 258.528 143.723 261.502 142.023Z" fill="url(#paint3_linear)"/>
<path d="M378.71 96.2863C378.71 149.009 335.972 191.75 283.249 191.75C262.239 191.75 242.813 184.959 227.043 173.455C222.802 170.363 223.179 163.918 227.737 161.313L368.783 80.7172C373.547 77.994 375.808 72.3165 374.16 67.0901C377.117 76.2913 378.71 86.1031 378.71 96.2863Z" fill="url(#paint4_linear)"/>
<path d="M254.848 138.15V54.4261C254.848 51.0014 258.547 48.8531 261.521 50.553L334.778 92.4136C337.774 94.1273 337.774 98.4459 334.778 100.16L261.521 142.02C258.547 143.723 254.848 141.575 254.848 138.15Z" fill="white"/>
<path d="M262.09 57.3033L328.622 95.3211C329.37 95.7502 329.37 96.8285 328.622 97.2576L262.09 135.275C261.348 135.699 260.421 135.163 260.421 134.307V58.2716C260.423 57.4133 261.348 56.8769 262.09 57.3033Z" fill="#EF4135"/>
<defs>
<linearGradient id="paint0_linear" x1="1.56783" y1="96.2889" x2="222.132" y2="96.2889" gradientUnits="userSpaceOnUse">
<stop stop-color="#CE1628"/>
<stop offset="0.0957" stop-color="#D4212A"/>
<stop offset="0.3569" stop-color="#E23330"/>
<stop offset="0.6433" stop-color="#EB3D33"/>
<stop offset="1" stop-color="#EF4135"/>
</linearGradient>
<linearGradient id="paint1_linear" x1="340.802" y1="96.2889" x2="564.679" y2="96.2889" gradientUnits="userSpaceOnUse">
<stop stop-color="#CE1628"/>
<stop offset="0.0957" stop-color="#D4212A"/>
<stop offset="0.3569" stop-color="#E23330"/>
<stop offset="0.6433" stop-color="#EB3D33"/>
<stop offset="1" stop-color="#EF4135"/>
</linearGradient>
<linearGradient id="paint2_linear" x1="233.818" y1="1.08187" x2="356.411" y2="72.9603" gradientUnits="userSpaceOnUse">
<stop stop-color="#09446C"/>
<stop offset="0.2" stop-color="#0A4E7E"/>
<stop offset="0.5349" stop-color="#0D5D98"/>
<stop offset="0.8135" stop-color="#0D66AB"/>
<stop offset="1" stop-color="#086BB5"/>
</linearGradient>
<linearGradient id="paint3_linear" x1="224.646" y1="172.963" x2="224.646" y2="29.1498" gradientUnits="userSpaceOnUse">
<stop stop-color="#09446C"/>
<stop offset="0.2" stop-color="#0A4E7E"/>
<stop offset="0.5349" stop-color="#0D5D98"/>
<stop offset="0.8135" stop-color="#0D66AB"/>
<stop offset="1" stop-color="#086BB5"/>
</linearGradient>
<linearGradient id="paint4_linear" x1="383.006" y1="105.733" x2="243.242" y2="185.198" gradientUnits="userSpaceOnUse">
<stop stop-color="#09446C"/>
<stop offset="0.2" stop-color="#0A4E7E"/>
<stop offset="0.5349" stop-color="#0D5D98"/>
<stop offset="0.8135" stop-color="#0D66AB"/>
<stop offset="1" stop-color="#086BB5"/>
</linearGradient>
</defs>
</svg>
