<svg width="231" height="60" viewBox="0 0 231 60" fill="none" xmlns="http://www.w3.org/2000/svg">
<g clip-path="url(#clip0_841_3715)">
<path d="M97.1904 29.1097C96.1409 28.4287 94.9629 27.8865 93.6855 27.4992C92.5011 27.1378 91.3007 26.8311 90.142 26.5826C88.8614 26.2889 87.6321 25.963 86.4926 25.6112C85.5522 25.3208 84.7979 24.898 84.2491 24.359C83.8222 23.9395 83.6136 23.2875 83.6136 22.3677C83.6136 21.6319 83.819 20.9993 84.2426 20.4248C84.7145 19.789 85.3243 19.3017 86.1139 18.937C86.9324 18.5562 87.799 18.3722 88.7651 18.3722C90.2608 18.3722 91.5639 18.6982 92.6359 19.3404C93.6887 19.973 94.4622 20.867 95.0014 22.0772L95.6594 23.5489L100.702 20.8702L100.163 19.589C99.1901 17.2846 97.6398 15.5064 95.5599 14.3122C93.5411 13.1536 91.2847 12.563 88.8581 12.563C86.881 12.563 85.0322 12.9825 83.3664 13.812C81.6813 14.6511 80.3076 15.8194 79.2901 17.2846C78.2374 18.7983 77.7045 20.5378 77.7045 22.4581C77.7045 24.246 78.064 25.7629 78.7766 26.9635C79.4699 28.1415 80.4167 29.1097 81.585 29.8423C82.6603 30.52 83.8479 31.059 85.1189 31.4431C86.3 31.8045 87.5037 32.1143 88.6945 32.3661C89.9687 32.6275 91.182 32.9309 92.3021 33.2665C93.2169 33.5408 93.9487 33.9507 94.4751 34.48C94.8891 34.8963 95.0977 35.587 95.0977 36.5294C95.0977 37.4492 94.8763 38.1979 94.4205 38.8143C93.9326 39.4759 93.2843 39.9665 92.4305 40.3183C91.5158 40.6959 90.4501 40.8863 89.2658 40.8863C87.6064 40.8863 86.1588 40.5378 84.9584 39.8536C83.7965 39.1887 82.9748 38.2851 82.4388 37.0877L81.7969 35.6483L76.6807 38.2205L77.2327 39.5308C78.2085 41.8449 79.8293 43.6457 82.0536 44.885C84.2009 46.0856 86.6274 46.6923 89.2626 46.6923C91.4098 46.6923 93.3774 46.276 95.1106 45.4563C96.8823 44.6172 98.317 43.4327 99.3698 41.932C100.455 40.3861 101.004 38.5691 101.004 36.5261C101.004 34.7446 100.644 33.2246 99.9379 32.0046C99.2478 30.8202 98.3235 29.8423 97.1904 29.1097Z" fill="#F4F6F8"/>
<path d="M124.996 22.329C123.266 21.2575 121.196 20.7153 118.84 20.7153C116.988 20.7153 115.254 21.1026 113.695 21.8707C113.114 22.1579 112.565 22.4839 112.058 22.8486V11.059H106.239V46.3309H112.058V33.7054C112.058 32.2596 112.343 30.9686 112.908 29.8713C113.467 28.7869 114.218 27.9575 115.2 27.3411C116.172 26.7311 117.244 26.4342 118.477 26.4342C119.831 26.4342 120.913 26.7311 121.777 27.3411C122.672 27.9736 123.327 28.7869 123.776 29.8261C124.248 30.9202 124.489 32.1466 124.489 33.4795V46.3341H130.308V33.2504C130.308 30.8137 129.862 28.6481 128.982 26.8086C128.074 24.9109 126.735 23.4037 124.996 22.329Z" fill="#F4F6F8"/>
<path d="M153.581 22.4774C151.63 21.3091 149.389 20.7153 146.921 20.7153C144.517 20.7153 142.296 21.3059 140.316 22.471C138.351 23.6296 136.769 25.2013 135.617 27.1474C134.455 29.1064 133.864 31.314 133.864 33.7087C133.864 36.1001 134.452 38.3141 135.613 40.286C136.763 42.2418 138.335 43.8297 140.28 45.0044C142.245 46.1889 144.479 46.7924 146.921 46.7924C149.361 46.7924 151.594 46.1921 153.562 45.0044C155.51 43.8297 157.073 42.2386 158.21 40.2796C159.352 38.3076 159.93 36.0969 159.93 33.7119C159.93 31.3559 159.349 29.1613 158.21 27.1894C157.073 25.2207 155.517 23.636 153.581 22.4774ZM153.161 37.4104C152.512 38.5368 151.659 39.4114 150.554 40.0892C149.473 40.754 148.285 41.0735 146.921 41.0735C145.557 41.0735 144.369 40.7508 143.288 40.0859C142.177 39.4082 141.317 38.5271 140.653 37.3975C140.001 36.2905 139.683 35.0964 139.683 33.7506C139.683 32.4048 140.001 31.2139 140.653 30.1037C141.317 28.9741 142.177 28.0963 143.288 27.4153C144.373 26.7505 145.56 26.4309 146.921 26.4309C148.282 26.4309 149.47 26.7537 150.554 27.4153C151.662 28.093 152.512 28.9677 153.161 30.0908C153.799 31.2042 154.111 32.3983 154.111 33.7506C154.111 35.1029 153.799 36.297 153.161 37.4104Z" fill="#F4F6F8"/>
<path d="M183.203 22.4774C181.252 21.3091 179.011 20.7153 176.543 20.7153C174.142 20.7153 171.924 21.2962 169.947 22.4452C167.977 23.5909 166.394 25.1562 165.242 27.1023C164.08 29.0645 163.489 31.2849 163.489 33.7087V56.4906H169.309V44.3428C169.716 44.6558 170.143 44.9463 170.592 45.211C172.406 46.2857 174.441 46.8343 176.636 46.8343C179.076 46.8343 181.303 46.2405 183.251 45.0722C185.193 43.9103 186.743 42.3128 187.867 40.3312C188.987 38.3464 189.558 36.1195 189.558 33.7087C189.558 31.3527 188.981 29.1581 187.838 27.1862C186.695 25.2207 185.135 23.6361 183.203 22.4774ZM182.776 37.4395C182.128 38.5755 181.277 39.4566 180.173 40.1343C179.092 40.796 177.904 41.1187 176.54 41.1187C175.179 41.1187 173.988 40.796 172.907 40.1343C171.799 39.4566 170.939 38.5723 170.275 37.4298C169.62 36.3067 169.302 35.1029 169.302 33.7538C169.302 32.408 169.62 31.2139 170.271 30.1069C170.936 28.9773 171.796 28.0995 172.907 27.4185C173.991 26.7537 175.179 26.4342 176.54 26.4342C177.901 26.4342 179.088 26.7569 180.173 27.4185C181.281 28.0963 182.131 28.9709 182.78 30.094C183.421 31.2074 183.733 32.4048 183.733 33.7538C183.733 35.1029 183.421 36.3099 182.776 37.4395Z" fill="#F4F6F8"/>
<path d="M211.744 23.1875C211.329 22.8712 210.89 22.5775 210.431 22.3096C208.621 21.251 206.589 20.7153 204.397 20.7153C201.993 20.7153 199.784 21.2995 197.836 22.4516C195.894 23.6006 194.341 25.1787 193.217 27.1474C192.094 29.1193 191.523 31.3559 191.523 33.799C191.523 36.155 192.104 38.3528 193.243 40.3215C194.379 42.2837 195.942 43.8716 197.891 45.0464C199.855 46.2308 202.089 46.8343 204.531 46.8343C206.964 46.8343 209.195 46.2502 211.156 45.1012C213.108 43.9587 214.684 42.3806 215.839 40.4183C217.001 38.4432 217.588 36.2163 217.588 33.7958V11.059H211.772L211.744 23.1875ZM210.819 37.4556C210.171 38.5787 209.314 39.4534 208.197 40.1279C207.096 40.7927 205.899 41.1187 204.535 41.1187C203.174 41.1187 201.983 40.7959 200.901 40.1311C199.797 39.4534 198.943 38.5787 198.295 37.4556C197.653 36.3422 197.342 35.1481 197.342 33.7958C197.342 32.4435 197.656 31.2365 198.298 30.1101C198.947 28.9741 199.797 28.093 200.901 27.4153C201.986 26.7505 203.174 26.4309 204.535 26.4309C205.899 26.4309 207.096 26.7537 208.197 27.4218C209.311 28.0963 210.168 28.9773 210.816 30.1101C211.458 31.2397 211.772 32.4468 211.772 33.799C211.769 35.1481 211.458 36.3454 210.819 37.4556Z" fill="#F4F6F8"/>
<path d="M229.454 21.2156H223.635V46.3341H229.454V21.2156Z" fill="#F4F6F8"/>
<path d="M229.573 13.4827C229.268 12.9502 228.864 12.5178 228.367 12.2015C227.346 11.556 225.918 11.514 224.778 12.1692C224.226 12.4855 223.786 12.9276 223.472 13.4827C223.161 14.0314 223.003 14.6446 223.003 15.3062C223.003 15.9646 223.161 16.5778 223.472 17.1264C223.786 17.6815 224.229 18.1237 224.778 18.4399C225.324 18.753 225.918 18.9112 226.543 18.9112C227.224 18.9112 227.834 18.7401 228.37 18.4044C228.864 18.0882 229.268 17.6589 229.573 17.1264C229.885 16.5778 230.042 15.9646 230.042 15.3062C230.045 14.6446 229.888 14.0314 229.573 13.4827Z" fill="#F4F6F8"/>
</g>
<g clip-path="url(#clip1_841_3715)">
<path d="M52.1518 17.9875H35.4208C30.2429 17.9875 25.2801 15.8932 21.6609 12.1749C21.3564 11.8633 20.8308 12.0791 20.8308 12.5135V32.5458C20.8308 33.5885 19.5737 34.1098 18.8391 33.3728L2.88744 17.3673C-3.2818 11.1772 1.09281 0.597778 9.81515 0.597778H31.0193C34.4712 0.597778 37.7828 1.97602 40.2284 4.42088L52.6177 16.8579C53.0298 17.2774 52.7371 17.9875 52.1518 17.9875Z" fill="#FDD116"/>
<path d="M42.9994 54.9961H21.7983C18.3434 54.9961 15.0288 53.6179 12.5832 51.167L0.193951 38.7359C-0.221115 38.3195 0.0745068 37.6094 0.659779 37.6094H17.3639C22.5418 37.6094 27.4987 39.7037 31.1178 43.4219C31.4224 43.7335 31.948 43.5178 31.9509 43.0834L31.9808 23.042C31.9838 21.9994 33.2379 21.478 33.9725 22.2151L49.312 37.6064L49.9272 38.2236C56.0904 44.4137 51.7218 54.9961 42.9994 54.9961Z" fill="#F4F6F8"/>
</g>
<defs>
<clipPath id="clip0_841_3715">
<rect width="153.361" height="45.4316" fill="white" transform="translate(76.6807 11.059)"/>
</clipPath>
<clipPath id="clip1_841_3715">
<rect width="52.8112" height="54.3983" fill="white" transform="translate(0 0.597778)"/>
</clipPath>
</defs>
</svg>
